<?xml version="1.0" encoding="UTF-8" standalone="no"?>
<!-- Created with Inkscape (http://www.inkscape.org/) -->

<svg
   xmlns:dc="http://purl.org/dc/elements/1.1/"
   xmlns:cc="http://creativecommons.org/ns#"
   xmlns:rdf="http://www.w3.org/1999/02/22-rdf-syntax-ns#"
   xmlns:svg="http://www.w3.org/2000/svg"
   xmlns="http://www.w3.org/2000/svg"
   xmlns:sodipodi="http://sodipodi.sourceforge.net/DTD/sodipodi-0.dtd"
   xmlns:inkscape="http://www.inkscape.org/namespaces/inkscape"
   width="241.5761mm"
   height="133.23792mm"
   viewBox="0 0 855.97829 472.10285"
   id="svg2"
   version="1.1"
   inkscape:version="0.91 r13725"
   sodipodi:docname="Car1Trasig.svg"
   inkscape:export-filename="/Users/jonathanloov/Dropbox/Teammajim/Node/Traffic/Web/Cars/Car1Trasig.png"
   inkscape:export-xdpi="90"
   inkscape:export-ydpi="90">
  <sodipodi:namedview
     id="base"
     pagecolor="#ffffff"
     bordercolor="#666666"
     borderopacity="1.0"
     inkscape:pageopacity="0.0"
     inkscape:pageshadow="2"
     inkscape:zoom="0.87753194"
     inkscape:cx="480.94934"
     inkscape:cy="258.87149"
     inkscape:document-units="px"
     inkscape:current-layer="g4486"
     showgrid="false"
     inkscape:snap-page="true"
     inkscape:object-nodes="true"
     inkscape:snap-nodes="false"
     showguides="true"
     inkscape:guide-bbox="true"
     inkscape:snap-smooth-nodes="true"
     inkscape:snap-center="false"
     inkscape:snap-object-midpoints="false"
     inkscape:window-width="1436"
     inkscape:window-height="856"
     inkscape:window-x="4"
     inkscape:window-y="0"
     inkscape:window-maximized="1"
     fit-margin-top="0"
     fit-margin-left="0"
     fit-margin-right="0"
     fit-margin-bottom="0">
    <sodipodi:guide
       id="guide3410"
       orientation="1,0"
       position="235.41404,849.50799" />
  </sodipodi:namedview>
  <defs
     id="defs4" />
  <metadata
     id="metadata7">
    <rdf:RDF>
      <cc:Work
         rdf:about="">
        <dc:format>image/svg+xml</dc:format>
        <dc:type
           rdf:resource="http://purl.org/dc/dcmitype/StillImage" />
        <dc:title />
      </cc:Work>
    </rdf:RDF>
  </metadata>
  <g
     id="layer1"
     inkscape:groupmode="layer"
     inkscape:label="Layer 1"
     transform="translate(-7.9346544,-496.66207)">
    <g
       id="g4486"
       transform="matrix(0,1,-1,0,976.69961,488.72743)">
      <path
         style="fill:#efef00;fill-opacity:1;fill-rule:evenodd;stroke:#000000;stroke-width:0.80072349px;stroke-linecap:butt;stroke-linejoin:miter;stroke-opacity:1"
         d="m 17.638448,234.53539 c 0.21117,-0.0878 0.423489,-0.1464 0.636719,-0.17578 3.368529,-0.085 6.764005,26.10725 7.583984,58.50195 0.820014,32.39692 -1.246375,58.72744 -4.615234,58.8086 -0.549528,-0.006 -1.102971,-0.20541 -1.65625,-0.59571 1.207757,24.65153 2.625067,50.10412 3.904297,74.41602 12.694647,11.67983 25.640291,23.11342 38.09375,35.03125 10.389267,9.94242 18.088292,23.88149 30.296875,31.06641 25.732151,7.51242 54.352481,3.01239 81.378911,4.25976 6.62841,0.30593 65.33988,6.4009 82.04883,-7.97656 8.77616,-7.55158 22.69608,-27.1278 31.9082,-44.05469 -0.71682,-6.90594 -1.55821,-13.41323 -2.2793,-18.62109 -0.26847,-1.93895 -0.43526,-3.14672 -0.67773,-4.90625 -11.82564,-9.53947 -23.15144,-20.23067 -34.64844,-31.5586 -7.80469,-7.68991 -12.009,-18.33201 -18.23242,-27.34961 -12.3906,-17.95373 -27.38076,-34.29091 -37.60547,-53.56054 -10.45051,-19.6952 -16.94349,-38.06611 -21.38086,-57.04297 -4.48896,-4.73299 -8.89922,-9.53816 -12.80664,-14.74805 -9.03923,-12.05231 -17.49402,-24.58373 -25.07031,-37.60547 -4.61634,-7.93435 -7.56707,-16.72765 -11.39649,-25.07031 -1.77966,-3.87712 -3.42,-7.37676 -4.99414,-10.70898 -3.8433,-1.89209 -8.68246,-4.22901 -14.79883,-7.17774 l -38.324218,9.91016 -6.83789,11.39453 c -0.379853,1.13955 -0.563474,2.36344 -1.138672,3.41797 -1.71598,3.14597 -3.365137,6.39637 -5.697266,9.11719 -4.485785,5.23342 -15.27715,11.78391 -20.511718,14.81445 -2.15439,1.24727 -4.318578,2.53164 -6.587891,3.55469 -1.337475,2.62439 -2.519436,5.21711 -3.478516,7.75781 -1.48455,3.93273 -2.485451,10.50641 -3.113281,19.10156 z"
         id="path4462"
         inkscape:connector-curvature="0" />
      <path
         style="fill:#efef00;fill-opacity:1;fill-rule:evenodd;stroke:#000000;stroke-width:0.80072349px;stroke-linecap:butt;stroke-linejoin:miter;stroke-opacity:1"
         d="m 103.56159,155.46613 10.13867,-2.62109 c -4.70284,-9.84058 -8.50912,-17.87772 -11.70312,-26.12891 -7.729919,5.46509 -16.421043,12.27997 -25.216797,19.92774 8.109315,1.29559 16.36742,3.80019 26.062497,8.47461 0.28834,0.13901 0.43593,0.2113 0.71875,0.34765 z"
         id="path4460" />
      <path
         style="fill:#efef00;fill-opacity:1;fill-rule:evenodd;stroke:#000000;stroke-width:0.80072349px;stroke-linecap:butt;stroke-linejoin:miter;stroke-opacity:1"
         d="m 113.70026,152.84504 c 1.47553,3.08749 2.97699,6.2358 4.66016,9.79883 22.76015,11.205 10.8833,7.13632 24.36719,25.52343 19.6576,26.80583 14.1255,13.6124 22.79101,31.90625 0.7904,1.66861 1.53432,3.36099 2.2754,5.05274 -1.33193,-8.92983 -2.41946,-18.14631 -3.41407,-27.84375 -0.70448,-6.86873 -0.86781,-13.77441 -0.9414,-20.68555 -9.13077,-10.495 -18.35459,-20.46047 -27.41993,-29.52344 l -22.31836,5.77149 z"
         id="path4458" />
      <path
         style="fill:#efef00;fill-opacity:1;fill-rule:evenodd;stroke:#000000;stroke-width:0.80072349px;stroke-linecap:butt;stroke-linejoin:miter;stroke-opacity:1"
         d="m 125.01659,139.86746 29.4912,17.30304 c 0.26684,-0.10264 0.53176,-0.21204 0.79909,-0.31214 0.38287,-4.12075 0.90259,-8.21774 1.80991,-12.25325 1.30647,-5.81091 3.01127,-10.83275 5.04577,-15.4036 -1.43121,-1.50768 -2.85725,-2.98367 -4.27242,-4.40091 -10.70336,-10.7187 -20.9146,-18.65477 -30.0968,-20.85685 -1.25475,-0.30091 -2.59004,-0.59396 -3.95969,-0.88526 0.51508,8.50155 0.78734,17.02258 1.02368,25.48586 0.10322,3.69613 0.15205,7.47967 0.15926,11.32311 z"
         id="path4456"
         inkscape:connector-curvature="0" />
      <path
         style="fill:#efef00;fill-opacity:1;fill-rule:evenodd;stroke:#000000;stroke-width:1.35703027px;stroke-linecap:butt;stroke-linejoin:miter;stroke-opacity:1"
         d="m 144.75324,156.22627 c 0.22059,0.39064 0.43465,0.78833 0.65642,1.17774 l 83.70983,-31.707 c -12.36675,-10.15952 -27.00921,-2.2568 -46.81088,-1.58234 -7.99451,0.27232 -18.08194,-5.64152 -23.93466,2.33948 -6.00731,8.19179 -10.14785,18.64781 -13.62071,29.77212 z"
         id="path4454"
         inkscape:connector-curvature="0" />
      <path
         style="fill:#efef00;fill-opacity:1;fill-rule:evenodd;stroke:#000000;stroke-width:0.80072349px;stroke-linecap:butt;stroke-linejoin:miter;stroke-opacity:1"
         d="m 229.71394,122.84308 c 2.66069,1.49238 5.17587,3.77422 7.59765,7.20508 19.69884,27.9067 32.37486,59.84729 40.74805,92.83789 3.07423,1.34568 6.18815,2.68623 9.39258,4.02539 8.76197,3.66172 17.88769,7.16884 27.34961,7.97657 21.95165,1.87392 44.06226,0 66.09375,0 39.11758,0 49.29489,1.15992 69.20898,-1.44922 -2.80912,-6.23478 -5.42148,-11.60934 -7.67187,-15.64453 -11.29195,-20.24763 -27.02488,-37.68673 -39.88477,-56.97657 -7.66108,-11.49162 -12.86741,-24.66904 -21.65234,-35.32617 -1.06625,-1.29347 -2.17126,-2.58345 -3.26172,-3.875 -1.05929,-0.68171 -2.09992,-1.33986 -3.09766,-1.94922 -0.95106,-0.58084 -1.97463,-1.10885 -3.05468,-1.59961 -10.83484,-0.86052 -21.56211,-2.2298 -32.00196,-4.86328 -29.05181,-0.0671 -66.92097,6.05274 -95.89648,6.05274 l -13.86914,3.58593 z"
         id="path4452" />
      <path
         style="fill:#efef00;fill-opacity:1;fill-rule:evenodd;stroke:#000000;stroke-width:0.80072349px;stroke-linecap:butt;stroke-linejoin:miter;stroke-opacity:1"
         d="m 450.10456,233.43879 c 4.20581,9.33469 8.84822,20.62694 13.38672,32.33203 1.40136,-17.5739 3.57262,-29.95156 5.80078,-31.28516 -0.10352,-1.41283 -0.21937,-2.74829 -0.34375,-4.04882 -7.44862,1.33154 -13.52897,2.30561 -18.84375,3.00195 z"
         id="path4450" />
      <path
         style="fill:#efef00;fill-opacity:1;fill-rule:evenodd;stroke:#000000;stroke-width:0.80072349px;stroke-linecap:butt;stroke-linejoin:miter;stroke-opacity:1"
         d="m 274.63715,220.28561 c -32.87964,-12.27051 -59.13572,-25.66852 -87.99346,-48.15351 -4.16267,-3.24343 -5.37964,-9.1271 -8.72164,-13.21106 -4.92581,-6.0194 -10.6167,-11.40862 -15.92667,-17.10119 l -0.80152,0.25573 c -1.84387,4.83193 -3.35994,9.85728 -5.08022,14.63195 -0.90129,2.50155 0.22647,5.31407 0.44178,7.96431 0.42557,5.23922 0.72551,10.49391 1.07286,15.74405 28.56184,29.37225 56.54757,63.37476 76.85825,92.92295 6.19528,9.01296 8.59566,20.1145 13.0811,30.08926 4.19467,9.32813 8.59198,18.56364 12.95681,27.81336 25.48839,54.0135 22.12923,37.8204 31.47151,85.78707 3.53063,2.53863 7.09904,4.9764 10.71613,7.30833 0.19439,-0.64256 0.37562,-1.27062 0.53558,-1.8763 1.26093,-4.77438 -0.547,-9.8612 -0.8205,-14.79171 -2.57414,-46.40593 -1.48225,-42.80265 -8.58819,-93.11257 -2.56376,-18.15144 -4.833,-36.38287 -8.71988,-54.29766 -2.9069,-13.39803 -6.34687,-26.79106 -10.48194,-39.97301 z"
         id="path4448"
         inkscape:connector-curvature="0" />
      <path
         style="fill:#efef00;fill-opacity:1;fill-rule:evenodd;stroke:#000000;stroke-width:0.80072349px;stroke-linecap:butt;stroke-linejoin:miter;stroke-opacity:1"
         d="M 526.36328 16.654297 C 485.84239 18.695171 450.27182 20.069447 430.75586 18.878906 C 405.38715 17.33132 303.8712 15.295245 214.2832 18.460938 C 213.16679 21.635067 187.70328 26.408078 156.47461 29.296875 C 124.20302 32.280314 97.799489 32.145638 97.505859 28.996094 C 97.484159 28.748684 97.506779 28.497237 97.574219 28.242188 C 87.151369 30.177169 78.836501 32.411974 73.306641 34.994141 C 62.568016 40.008538 54.327158 44.814214 47.832031 49.560547 C 50.49243 52.907879 53.115398 56.286376 55.837891 59.582031 C 58.068301 62.281996 60.139801 65.143371 62.675781 67.558594 C 68.135691 72.758505 74.438031 77.041553 79.769531 82.373047 C 85.479971 88.083493 89.825136 95.088439 95.722656 100.60547 C 101.65919 106.159 108.71027 110.38898 115.0957 115.41992 C 121.24678 120.26624 126.72152 126.03018 133.32812 130.23438 C 139.34916 134.06594 146.39376 136.01234 152.70117 139.35156 C 157.36644 141.82141 161.67656 144.95757 166.21094 147.6582 C 186.84051 135.34086 208.13451 124.61578 233.60938 113.14062 C 253.67606 104.10158 273.59877 93.691155 295.14648 89.210938 C 312.62576 85.576634 330.85197 89.210938 348.70508 89.210938 L 422.77734 89.210938 C 434.93265 89.210938 447.12382 88.26419 459.24219 89.210938 C 464.17954 89.596669 469.09108 90.237449 473.98633 91.003906 C 474.38982 90.025884 474.77824 89.042444 475.19727 88.070312 C 475.77887 86.72098 476.44359 85.429096 477.17773 84.181641 C 477.91658 81.650881 478.76568 79.146348 479.75391 76.675781 C 489.16802 53.140502 508.21647 34.894036 526.36328 16.654297 z M 166.21094 147.6582 C 148.29353 158.35618 130.87686 170.25191 111.67773 184.93359 C 103.9967 190.80732 98.001422 198.60795 91.164062 205.44531 C 79.388613 217.22076 66.765241 228.20503 55.837891 240.77148 C 51.477771 245.78562 48.832961 252.07009 45.582031 257.86523 C 34.239511 278.0845 24.572102 294.69037 18.232422 317.12305 C 17.990463 317.97921 17.776504 318.84073 17.564453 319.70312 C 28.873505 318.96741 44.694014 317.87239 57.558594 316.64258 C 59.187039 314.09041 60.930872 311.60522 62.675781 309.14648 C 75.494531 291.0837 91.671092 275.79854 108.25781 261.28516 C 130.70663 241.64244 144.61337 228.43335 169.79492 211.14453 C 183.43768 201.77785 197.83827 193.56291 211.95898 184.93359 C 221.19299 179.2906 230.47487 173.729 239.77148 168.18945 C 239.23725 168.07166 238.70199 167.95852 238.16797 167.83984 C 229.05149 166.32043 219.79737 165.47125 210.81836 163.28125 C 204.16548 161.6586 197.96071 158.55324 191.44531 156.44531 C 185.04112 154.37337 178.23255 153.463 172.07422 150.74609 C 170.04937 149.85278 168.11202 148.79047 166.21094 147.6582 z M 239.77148 168.18945 C 252.91724 171.08797 266.11957 173.74264 279.19141 176.95703 C 288.13173 179.15547 296.11234 181.3894 303.73633 183.71875 C 319.29796 167.68641 323.98882 165.15911 347.56641 145.04883 C 351.04649 142.08052 354.1142 138.61164 357.82227 135.93359 C 360.9927 133.64384 364.94947 132.58088 368.07812 130.23438 C 376.338 126.17264 380.42237 117.40872 387.45117 112.00195 L 395.42773 107.44336 C 395.80759 106.68365 395.96581 105.76466 396.56641 105.16406 C 396.83501 104.89546 397.43843 105.43265 397.70703 105.16406 C 397.97563 104.89546 398.07554 104.11752 397.70703 104.02539 C 396.23298 103.65688 394.66786 104.02539 393.14844 104.02539 C 387.8305 104.02539 382.46143 103.29876 377.19336 104.02539 C 359.09765 106.52135 346.11726 115.6684 329.33203 123.39844 C 310.80003 131.93292 291.84961 139.56095 273.49414 148.46875 C 265.99146 152.10976 259.01619 156.75242 251.8418 161.00391 C 247.8134 163.3911 243.79415 165.79248 239.77148 168.18945 z M 303.73633 183.71875 C 300.61785 186.93155 297.10224 190.63678 292.86719 195.18945 C 286.07611 202.48986 278.41573 209.3091 273.49414 217.98047 C 270.21963 223.74984 269.87372 230.78634 268.93555 237.35352 C 267.81344 245.20828 269.2733 259.38639 273.49414 265.8418 C 277.04124 271.26677 280.47097 274.49689 284.11523 276.97461 C 285.5124 276.68012 286.90728 276.37242 288.30859 276.09766 C 297.37812 274.31932 306.69192 273.78259 315.6582 271.54102 C 350.77648 262.76144 332.01338 266.7785 341.38867 261.06836 C 340.4505 258.37731 339.68938 255.8681 339.58789 254.44727 C 339.39652 251.76813 340.4319 249.14024 340.72852 246.4707 C 340.81242 245.71564 340.72852 244.95111 340.72852 244.19141 L 340.72852 239.63281 C 340.72852 238.11339 339.8857 236.33845 340.72852 235.07422 C 341.67082 233.66077 343.87366 233.73722 345.28711 232.79492 C 346.18105 232.19896 346.56886 230.91465 347.56641 230.51562 C 348.62446 230.09241 349.86031 230.70297 350.98438 230.51562 C 359.26318 229.13583 350.58334 229.37695 356.68164 229.37695 L 360.10156 229.37695 C 360.48142 229.37695 361.16574 229.00447 361.24023 229.37695 C 361.61271 231.23933 361.24023 233.17495 361.24023 235.07422 L 361.24023 241.91211 L 361.24023 245.33008 C 361.24023 247.22934 362.1626 249.36709 361.24023 251.02734 C 358.04461 256.77947 352.58196 255.52464 347.56641 257.86523 C 344.72933 259.1892 342.76139 260.23229 341.38867 261.06836 C 342.83055 265.20427 344.69907 269.7769 345.28711 271.54102 C 346.1616 274.16448 346.39697 277.01164 347.56641 279.51758 C 351.30468 287.52817 354.54621 289.25344 358.96094 296.61133 C 359.63307 297.73155 360.15919 298.93603 360.67383 300.14648 C 371.1179 300.17178 381.5635 300.0293 392.00781 300.0293 L 443.5957 300.0293 C 442.45699 289.24552 443.28906 281.31602 443.28906 264.70312 L 443.28906 245.33008 C 443.28906 236.32613 442.80045 229.26568 443.01172 222.61523 L 363.51953 204.30664 C 339.79038 196.07408 322.92614 189.5818 303.73633 183.71875 z M 443.01172 222.61523 L 451.56055 224.58398 C 450.39945 213.62792 450.02587 202.98372 450.44922 194.57617 C 450.34227 194.78097 450.23041 194.98254 450.12695 195.18945 C 444.7661 205.91115 443.28823 213.91136 443.01172 222.61523 z M 443.5957 300.0293 C 443.98543 303.72005 444.60369 307.74113 445.56836 312.56445 C 446.41774 316.81133 448.0468 320.87175 448.98633 325.09961 C 450.65755 332.6201 450.12695 340.25858 450.12695 347.89062 L 450.12695 351.30859 C 450.12695 352.44815 450.55017 353.67047 450.12695 354.72852 C 449.72793 355.72607 448.32814 356.04685 447.84766 357.00781 C 447.50791 357.68731 448.18741 358.60761 447.84766 359.28711 C 446.50908 361.96427 444.58518 361.73038 442.14844 362.70508 C 439.46247 363.77947 436.81542 364.94814 434.17188 366.12305 C 423.08187 371.05194 418.22454 373.47535 406.82227 378.6582 C 403.41648 380.20628 400.09601 381.97667 396.56641 383.2168 C 386.02625 386.9201 375.25672 389.93982 364.6582 393.47266 C 358.16171 395.63816 351.65953 397.80337 345.28711 400.31055 C 328.48293 406.92203 312.71731 416.65599 295.14648 420.82227 C 265.09812 427.94714 220.80079 426.51953 189.16602 426.51953 C 173.21219 426.51953 157.2522 426.96876 141.30469 426.51953 C 124.67991 426.05123 98.843608 424.18951 82.048828 419.68359 C 75.768828 417.99872 69.103846 416.50942 63.597656 413.10938 C 53.412531 411.27745 43.545745 408.11374 35.326172 401.44922 C 30.447451 397.4935 26.216698 392.79588 22.318359 387.81641 C 29.299519 405.2879 37.6589 419.65508 73.306641 436.30078 C 78.831041 438.8804 87.134589 441.11319 97.542969 443.04688 C 97.540969 443.02927 97.540062 443.01174 97.539062 442.99414 C 97.847022 439.84652 124.24809 439.7652 156.50781 442.8125 C 184.33472 445.44386 208.09103 449.62336 213.28125 452.80078 C 303.11186 456.01718 405.29287 453.96935 430.75586 452.41602 C 449.88269 451.24921 484.45207 452.55053 523.96094 454.52344 C 514.51623 438.54096 512.73618 420.71186 510.52344 398.03125 C 509.04809 382.90892 507.37566 367.31371 510.52344 352.44922 C 514.69802 332.73591 522.10729 315.68396 531.75391 300.0293 L 444.42773 300.0293 L 443.5957 300.0293 z M 63.597656 413.10938 C 72.455106 414.7025 81.553032 415.29143 90.025391 416.26367 C 102.1544 417.65552 114.31872 418.73269 126.49023 419.68359 C 163.36147 422.56416 171.10481 422.47865 210.81836 421.96289 C 224.11752 421.79018 237.59952 423.10116 250.70312 420.82227 C 281.2024 415.51805 299.83514 402.6055 325.91406 388.91406 C 332.6824 385.36069 339.64837 382.19424 346.42578 378.6582 C 351.30301 376.11355 360.35045 369.68708 363.51953 367.26367 C 365.39156 365.83212 373.76692 358.7269 376.05469 355.86719 C 377.76583 353.72827 378.96978 351.22257 380.61328 349.03125 C 381.25791 348.17174 382.59742 347.78499 382.89258 346.75195 C 383.41434 344.92576 382.89258 342.95199 382.89258 341.05273 L 382.89258 337.63477 L 382.89258 334.2168 C 382.89258 332.31753 383.74195 330.21634 382.89258 328.51758 C 381.3264 325.38523 378.18994 323.31685 376.05469 320.54102 C 374.38459 318.3699 373.26543 315.79415 371.49609 313.70312 C 369.06712 310.83252 365.74327 308.75893 363.51953 305.72656 C 362.28292 304.04027 361.4976 302.08405 360.67383 300.14648 C 356.68382 300.13682 352.69441 300.10752 348.70508 300.0293 C 343.75335 299.9322 338.73145 299.93729 333.89062 298.89062 C 324.60878 296.88374 315.42006 294.28003 306.54102 290.91211 C 304.26687 290.04951 302.90629 287.64456 300.84375 286.35547 C 294.32334 282.28021 289.02351 280.31173 284.11523 276.97461 C 275.23301 278.84675 266.41985 281.04334 257.54102 282.93555 C 244.64475 285.68394 231.71799 288.29257 218.79492 290.91211 C 203.60874 293.99039 188.52129 297.6316 173.21289 300.0293 C 156.96721 302.5738 140.48009 303.32345 124.21289 305.72656 C 107.03788 308.26378 90.078381 312.12204 72.931641 314.84375 C 69.066595 315.45725 63.623244 316.06282 57.558594 316.64258 C 55.598105 319.71514 53.807759 322.88434 52.419922 326.23828 C 50.340442 331.2637 50.321033 336.91707 49.001953 342.19336 C 47.660553 347.55897 45.317159 352.6852 44.443359 358.14648 C 43.783209 362.27239 44.443359 366.50325 44.443359 370.68164 L 44.443359 383.2168 C 44.443359 385.87577 43.075329 388.91331 44.443359 391.19336 C 49.022489 398.82526 54.442799 406.33254 61.537109 411.70703 C 62.201964 412.21071 62.891312 412.67321 63.597656 413.10938 z M 17.564453 319.70312 C 11.714619 320.08369 7.1936001 320.36365 4.9199219 320.51758 C 7.0519271 338.2147 10.183095 355.42169 14.785156 368.48047 C 14.639664 352.39142 13.667516 335.55174 17.564453 319.70312 z M 15.767578 100.12305 C 4.6432321 128.93996 1.5488464 181.38247 0.70703125 211.89258 C 3.8800357 210.10497 7.0537335 208.32042 10.255859 206.58594 C 12.496409 205.3723 14.91948 204.49474 17.09375 203.16602 C 21.76831 200.30935 26.109548 196.93432 30.767578 194.05078 C 44.647218 185.45862 36.616348 191.1808 47.861328 184.93359 C 49.811778 183.85001 51.403334 182.23404 53.558594 181.51562 C 53.918954 181.3955 54.430629 181.78421 54.699219 181.51562 C 55.19842 181.01642 55.140654 180.70366 54.910156 180.50977 C 54.405694 180.60975 53.90997 180.68245 53.558594 180.375 C 50.923014 178.06886 48.910376 175.1331 46.722656 172.39844 C 38.695476 162.36447 35.518146 157.16093 29.628906 143.91016 C 24.187436 131.66685 21.404082 122.0921 18.232422 109.72266 C 17.411854 106.52244 16.591052 103.32282 15.767578 100.12305 z M 54.910156 180.50977 C 55.226527 180.44706 55.545082 180.375 55.837891 180.375 L 56.978516 180.375 C 55.644347 180.375 54.935139 180.34135 54.490234 180.30664 C 54.647316 180.35054 54.795594 180.4134 54.910156 180.50977 z M 54.490234 180.30664 C 54.009359 180.17224 53.62906 180.23946 54.490234 180.30664 z "
         transform="matrix(0,-1,1,0,7.93464,968.76496)"
         id="path4446" />
      <path
         style="fill:#efef00;fill-opacity:1;fill-rule:evenodd;stroke:#000000;stroke-width:0.80072349px;stroke-linecap:butt;stroke-linejoin:miter;stroke-opacity:1"
         d="m 167.79402,225.12629 c 1.30951,8.77957 2.87582,17.27611 4.83398,25.65039 2.18647,2.30533 4.38486,4.5996 6.56641,6.90234 0.26124,0.27576 1.13867,0.37985 1.13867,0 0,-0.90652 -1.28192,-10.3979 -2.2793,-12.53515 -2.01275,-4.31302 -4.70936,-8.27809 -6.83789,-12.53516 -1.2269,-2.45381 -2.32072,-4.96868 -3.42187,-7.48242 z"
         id="path3365" />
      <path
         style="fill:#ffff00;fill-rule:evenodd;stroke:#000000;stroke-width:0.72280455px;stroke-linecap:butt;stroke-linejoin:miter;stroke-opacity:1"
         d="m 100.03634,310.03645 0.68415,39.27041 2.43933,55.08886 149.7283,-29.25619 -11.15905,-17.78382 -19.25267,-51.6194 -11.5319,-13.34583 -22.57488,-34.02999 -10.26211,-22.68667 -4.49704,-9.69078 -13.32579,-6.49529 -7.73835,2.01133 -49.12094,58.33031 z m 60.24834,-90.5487 9.12949,-2.37188 -3.34507,-7.07854 -8.12879,6.97956 -1.06402,0.88372 2.76118,1.27254 z m 9.12949,-2.37188 4.1963,8.86717 21.94175,23.0967 20.52245,28.87265 2.04891,4.57233 -3.07424,-25.19641 -0.84769,-18.71879 -24.69063,-26.7164 z m 20.09685,-5.22275 29.80849,-7.74661 0.31129,-0.71051 -2.83154,-3.55429 -29.15247,0.15377 -8.07954,2.18807 2.64511,2.51327 z m 30.11978,-8.45712 0.42209,0.51962 10.53646,-2.73774 -9.42847,-0.94911 z m 0.42209,0.51962 -0.73338,0.19089 -5.29725,12.96582 0,7.21816 0.17939,14.27903 64.46749,87.81095 10.26035,27.84225 8.00216,20.17868 33.82714,1.65785 -0.78262,-9.46279 -5.13194,-49.49673 -7.43057,-36.64225 -76.71169,-47.91841 -7.18259,-12.37375 z m 97.36077,76.54186 8.45767,3.64266 24.6273,7.21817 59.51495,0 60.39079,-1.0587 -0.8688,-6.30263 -4.11012,-8.10717 -23.3241,-33.99819 -32.28123,-29.19078 -35.34667,-13.55615 -88.28228,5.57446 z m -99.29008,2.02724 4.35282,23.21159 5.91281,6.24607 1.02533,0 -2.05243,-11.34332 -6.15726,-11.34334 z"
         id="path3581"
         inkscape:connector-curvature="0"
         sodipodi:nodetypes="ccccccccccccccccccccccccccccccccccccccccccccccccccccccccccccccccccccccccccccc" />
      <path
         inkscape:connector-curvature="0"
         id="path3445"
         d="m 70.729201,692.57109 c 1.153073,14.61742 0.229825,29.64114 0.823361,44.4113 0.761207,47.25721 2.009541,95.15018 13.113799,141.17836 6.775313,19.18215 22.520429,35.35272 42.693559,40.11319 46.67692,15.93825 96.61233,13.47338 145.26128,13.23887 35.90432,-1.35338 73.21587,-4.40794 105.45148,-21.49182 19.81288,-12.77231 27.64834,-37.30498 30.25857,-59.679 6.389,-52.36618 7.21936,-105.06342 7.63314,-157.82178 -111.2369,36.4963 -233.99754,36.19029 -345.235189,0.0509 z"
         style="fill:#1a1a1a;fill-opacity:1;fill-rule:evenodd;stroke:#000000;stroke-width:0.69536614px;stroke-linecap:butt;stroke-linejoin:miter;stroke-opacity:1" />
      <path
         sodipodi:nodetypes="ccccccccccccc"
         inkscape:connector-curvature="0"
         id="path3574"
         d="m 448.74219,399.12695 c 0.34633,3.7783 -2.5058,8.519 -2.35742,12.4375 -14.24355,75.97075 -27.87891,228.43164 -27.87891,228.43164 0,0 21.23148,55.42487 32.48047,69.00391 -1.06121,-71.51364 -4.45194,-223.23287 1.39648,-294.60547 -0.77784,-4.56076 3.10065,-10.3215 -0.34765,-14.03125 -1.09489,-0.4205 -2.19536,-0.8245 -3.29297,-1.23633 z m -408.927737,0.0117 c -1.564395,0.58632 -3.126898,1.17546 -4.685547,1.7793 6.00585,81.65866 2.801757,236.84 2.279297,308.15039 12.43104,-11.43307 32.478516,-69.2168 32.478516,-69.2168 0,0 -1.27867,-11.56256 -1.90625,-17.34375 -5.95355,-74.42724 -15.016566,-149.0343 -28.166016,-223.36914 z"
         style="fill:#1a1a1a;fill-rule:evenodd;stroke:#000000;stroke-width:0.80072349px;stroke-linecap:butt;stroke-linejoin:miter;stroke-opacity:1" />
      <path
         inkscape:connector-curvature="0"
         id="path3547"
         d="m 233.54492,339.73828 c -64.67518,1.24547 -128.80934,12.16385 -186.083982,37.36914 6.692016,37.61447 12.331336,75.29888 17.050781,112.9961 52.814761,-20.24415 110.703131,-29.24196 169.033201,-30.36524 65.50713,-0.0202 130.99343,7.73286 190.30078,30.28906 3.83716,-32.8581 8.39542,-65.69457 14.53907,-98.46289 -0.18526,-4.89261 4.32114,-11.07305 1.41796,-15.05273 -63.40047,-27.5867 -134.82,-36.79549 -206.25781,-36.77344 z"
         style="fill:#1a1a1a;fill-rule:evenodd;stroke:#000000;stroke-width:0.82838303px;stroke-linecap:butt;stroke-linejoin:miter;stroke-opacity:1" />
      <path
         style="fill:#1a1a1a;fill-opacity:1;stroke:none"
         d="m 18.275167,234.35961 a 58.674231,11.734846 88.54994 0 0 -10.2469197,58.95251 58.674231,11.734846 88.54994 0 0 13.2164997,58.35856 58.674231,6.1011686 88.54994 0 0 4.61461,-58.80994 58.674231,6.1011686 88.54994 0 0 -7.58419,-58.50113 z"
         id="path4399"
         inkscape:connector-curvature="0" />
      <path
         inkscape:connector-curvature="0"
         id="path4404"
         d="m 469.69697,234.35961 a 11.734846,58.674231 1.45006 0 1 10.24692,58.95251 11.734846,58.674231 1.45006 0 1 -13.2165,58.35856 6.1011686,58.674231 1.45006 0 1 -4.61461,-58.80994 6.1011686,58.674231 1.45006 0 1 7.58419,-58.50113 z"
         style="fill:#1a1a1a;fill-opacity:1;stroke:none" />
      <path
         inkscape:connector-curvature="0"
         id="path4411"
         d="m 26.130418,754.41417 a 58.672004,11.014214 84.72489 0 0 -5.563728,59.47214 58.672004,11.014214 84.72489 0 0 16.365821,57.37378 58.671996,5.7264992 84.71994 0 0 0.299617,-58.96844 58.671996,5.7264992 84.71994 0 0 -11.10171,-57.87748 z"
         style="fill:#1a1a1a;fill-opacity:1;stroke:none" />
      <path
         style="fill:#1a1a1a;fill-opacity:1;stroke:none"
         d="m 461.96545,754.4023 a 11.014214,58.672004 5.3895121 0 1 5.44497,59.48314 11.014214,58.672004 5.3895121 0 1 -16.48036,57.34098 5.7264992,58.671996 5.3944624 0 1 -0.18186,-58.96892 5.7264992,58.671996 5.3944624 0 1 11.21725,-57.8552 z"
         id="path4413"
         inkscape:connector-curvature="0" />
    </g>
  </g>
</svg>
