<?xml version="1.0" encoding="UTF-8" standalone="no"?>
<!-- Created with Inkscape (http://www.inkscape.org/) -->

<svg
   xmlns:dc="http://purl.org/dc/elements/1.1/"
   xmlns:cc="http://creativecommons.org/ns#"
   xmlns:rdf="http://www.w3.org/1999/02/22-rdf-syntax-ns#"
   xmlns:svg="http://www.w3.org/2000/svg"
   xmlns="http://www.w3.org/2000/svg"
   xmlns:sodipodi="http://sodipodi.sourceforge.net/DTD/sodipodi-0.dtd"
   xmlns:inkscape="http://www.inkscape.org/namespaces/inkscape"
   width="241.5761mm"
   height="133.23792mm"
   viewBox="0 0 855.97829 472.10285"
   id="svg2"
   version="1.1"
   inkscape:version="0.91 r13725"
   sodipodi:docname="Car1.svg"
   inkscape:export-filename="/Users/jonathanloov/Dropbox/Teammajim/Node/Trafic/Web/Cars/Car1.png"
   inkscape:export-xdpi="90"
   inkscape:export-ydpi="90">
  <sodipodi:namedview
     id="base"
     pagecolor="#ffffff"
     bordercolor="#666666"
     borderopacity="1.0"
     inkscape:pageopacity="0.0"
     inkscape:pageshadow="2"
     inkscape:zoom="0.43876597"
     inkscape:cx="-145.80847"
     inkscape:cy="433.22412"
     inkscape:document-units="px"
     inkscape:current-layer="layer1"
     showgrid="false"
     inkscape:snap-page="true"
     inkscape:object-nodes="true"
     inkscape:snap-nodes="true"
     showguides="true"
     inkscape:guide-bbox="true"
     inkscape:snap-smooth-nodes="true"
     inkscape:snap-center="false"
     inkscape:snap-object-midpoints="false"
     inkscape:window-width="1436"
     inkscape:window-height="856"
     inkscape:window-x="4"
     inkscape:window-y="0"
     inkscape:window-maximized="1"
     fit-margin-top="0"
     fit-margin-left="0"
     fit-margin-right="0"
     fit-margin-bottom="0">
    <sodipodi:guide
       id="guide3410"
       orientation="1,0"
       position="235.41404,849.50799" />
  </sodipodi:namedview>
  <defs
     id="defs4" />
  <metadata
     id="metadata7">
    <rdf:RDF>
      <cc:Work
         rdf:about="">
        <dc:format>image/svg+xml</dc:format>
        <dc:type
           rdf:resource="http://purl.org/dc/dcmitype/StillImage" />
        <dc:title></dc:title>
      </cc:Work>
    </rdf:RDF>
  </metadata>
  <g
     id="layer1"
     inkscape:groupmode="layer"
     inkscape:label="Layer 1"
     transform="translate(-7.9346544,-496.66207)">
    <g
       id="g4486"
       transform="matrix(0,1,-1,0,976.69961,488.72743)">
      <path
         inkscape:connector-curvature="0"
         id="path3365"
         d="m 148.66992,113.19727 c -15.14764,-0.0373 -27.9825,1.54908 -36.04101,6.4707 -27.210522,16.61842 -78.451122,60.82013 -91.642582,95.76562 -1.48455,3.93273 -2.485451,10.50642 -3.113281,19.10157 a 58.674231,11.734846 88.54994 0 1 0.636719,-0.17578 58.674231,6.1011686 88.54994 0 1 7.583984,58.50195 58.674231,6.1011686 88.54994 0 1 -4.615234,58.80859 58.674231,11.734846 88.54994 0 1 -1.65625,-0.5957 c 3.56574,72.78027 9.040197,153.3635 6.992187,186.93555 -1.547586,25.36871 -3.58366,126.88465 -0.417969,216.47265 a 58.671996,5.7264992 84.71994 0 1 10.835938,57.8086 58.671996,5.7264992 84.71994 0 1 -0.300781,58.96875 58.672004,11.014214 84.72489 0 1 -0.753907,-0.0684 c 1.934982,10.42285 4.169787,18.73771 6.751954,24.26757 21.087,45.15904 38.496183,46.53645 63.224612,56.7793 41.32968,17.11931 137.42968,16.11524 137.42968,16.11524 0,0 96.09806,1.00407 137.42774,-16.11524 24.72842,-10.24285 42.13761,-11.62026 63.22461,-56.7793 2.57962,-5.5244 4.81242,-13.82794 6.74609,-24.23632 a 11.014214,58.672004 5.3895121 0 1 -0.0527,0.004 5.7264992,58.671996 5.3944624 0 1 -0.18164,-58.96875 5.7264992,58.671996 5.3944624 0 1 9.98828,-56.77343 c 3.2164,-89.83061 1.16856,-192.01162 -0.38477,-217.47461 -2.04324,-33.49388 3.40221,-113.7806 6.96875,-186.42774 a 11.734846,58.674231 1.45006 0 1 -0.59375,0.0879 6.1011686,58.674231 1.45006 0 1 -4.61328,-58.80859 6.1011686,58.674231 1.45006 0 1 7.17969,-58.375 c -0.62806,-8.57168 -1.63148,-15.12728 -3.11328,-19.05274 -13.19146,-34.94549 -64.43207,-79.1472 -91.64258,-95.76562 -23.44293,-14.31743 -87.30144,-0.41016 -130.95313,-0.41016 -28.64642,0 -65.99586,-5.98941 -94.91406,-6.06054 z"
         style="fill:#efef00;fill-opacity:1;fill-rule:evenodd;stroke:#000000;stroke-width:0.80072349px;stroke-linecap:butt;stroke-linejoin:miter;stroke-opacity:1" />
      <path
         inkscape:connector-curvature="0"
         id="path3581"
         d="m 341.42773,132.98633 c -46.39278,1.75444 -92.93359,9.89528 -139.45898,4.29297 -22.68626,-1.76964 -45.31273,-6.06525 -68.01947,-3.30992 -12.98085,1.99211 -23.68545,10.04396 -32.9908,18.76577 -23.855177,19.52706 -48.371318,40.42784 -60.540798,69.4127 -6.99665,25.07113 -1.882214,51.20511 -3.00362,76.77793 0.557198,20.27051 1.684071,40.59462 2.708985,60.87695 113.049543,-39.66933 237.311233,-42.4135 353.631473,-15.96141 17.81701,4.3225 35.429,9.50449 52.71228,15.62352 1.4052,-46.28726 7.78276,-93.12413 -0.49604,-138.9482 -13.39116,-30.39501 -41.26232,-50.82872 -65.28912,-72.54984 -11.1334,-8.76266 -24.8185,-15.28507 -39.25391,-14.98047 z"
         style="fill:#ffff00;fill-rule:evenodd;stroke:#000000;stroke-width:0.80072349px;stroke-linecap:butt;stroke-linejoin:miter;stroke-opacity:1" />
      <path
         inkscape:connector-curvature="0"
         id="path3445"
         d="m 70.729201,692.57109 c 1.153073,14.61742 0.229825,29.64114 0.823361,44.4113 0.761207,47.25721 2.009541,95.15018 13.113799,141.17836 6.775313,19.18215 22.520429,35.35272 42.693559,40.11319 46.67692,15.93825 96.61233,13.47338 145.26128,13.23887 35.90432,-1.35338 73.21587,-4.40794 105.45148,-21.49182 19.81288,-12.77231 27.64834,-37.30498 30.25857,-59.679 6.389,-52.36618 7.21936,-105.06342 7.63314,-157.82178 -111.2369,36.4963 -233.99754,36.19029 -345.235189,0.0509 z"
         style="fill:#1a1a1a;fill-opacity:1;fill-rule:evenodd;stroke:#000000;stroke-width:0.69536614px;stroke-linecap:butt;stroke-linejoin:miter;stroke-opacity:1" />
      <path
         sodipodi:nodetypes="ccccccccccccc"
         inkscape:connector-curvature="0"
         id="path3574"
         d="m 448.74219,399.12695 c 0.34633,3.7783 -2.5058,8.519 -2.35742,12.4375 -14.24355,75.97075 -27.87891,228.43164 -27.87891,228.43164 0,0 21.23148,55.42487 32.48047,69.00391 -1.06121,-71.51364 -4.45194,-223.23287 1.39648,-294.60547 -0.77784,-4.56076 3.10065,-10.3215 -0.34765,-14.03125 -1.09489,-0.4205 -2.19536,-0.8245 -3.29297,-1.23633 z m -408.927737,0.0117 c -1.564395,0.58632 -3.126898,1.17546 -4.685547,1.7793 6.00585,81.65866 2.801757,236.84 2.279297,308.15039 12.43104,-11.43307 32.478516,-69.2168 32.478516,-69.2168 0,0 -1.27867,-11.56256 -1.90625,-17.34375 -5.95355,-74.42724 -15.016566,-149.0343 -28.166016,-223.36914 z"
         style="fill:#1a1a1a;fill-rule:evenodd;stroke:#000000;stroke-width:0.80072349px;stroke-linecap:butt;stroke-linejoin:miter;stroke-opacity:1" />
      <path
         inkscape:connector-curvature="0"
         id="path3547"
         d="m 233.54492,339.73828 c -64.67518,1.24547 -128.80934,12.16385 -186.083982,37.36914 6.692016,37.61447 12.331336,75.29888 17.050781,112.9961 52.814761,-20.24415 110.703131,-29.24196 169.033201,-30.36524 65.50713,-0.0202 130.99343,7.73286 190.30078,30.28906 3.83716,-32.8581 8.39542,-65.69457 14.53907,-98.46289 -0.18526,-4.89261 4.32114,-11.07305 1.41796,-15.05273 -63.40047,-27.5867 -134.82,-36.79549 -206.25781,-36.77344 z"
         style="fill:#1a1a1a;fill-rule:evenodd;stroke:#000000;stroke-width:0.82838303px;stroke-linecap:butt;stroke-linejoin:miter;stroke-opacity:1" />
      <path
         style="fill:#1a1a1a;fill-opacity:1;stroke:none"
         d="m 18.275167,234.35961 a 58.674231,11.734846 88.54994 0 0 -10.2469197,58.95251 58.674231,11.734846 88.54994 0 0 13.2164997,58.35856 58.674231,6.1011686 88.54994 0 0 4.61461,-58.80994 58.674231,6.1011686 88.54994 0 0 -7.58419,-58.50113 z"
         id="path4399"
         inkscape:connector-curvature="0" />
      <path
         inkscape:connector-curvature="0"
         id="path4404"
         d="m 469.69697,234.35961 a 11.734846,58.674231 1.45006 0 1 10.24692,58.95251 11.734846,58.674231 1.45006 0 1 -13.2165,58.35856 6.1011686,58.674231 1.45006 0 1 -4.61461,-58.80994 6.1011686,58.674231 1.45006 0 1 7.58419,-58.50113 z"
         style="fill:#1a1a1a;fill-opacity:1;stroke:none" />
      <path
         inkscape:connector-curvature="0"
         id="path4411"
         d="m 26.130418,754.41417 a 58.672004,11.014214 84.72489 0 0 -5.563728,59.47214 58.672004,11.014214 84.72489 0 0 16.365821,57.37378 58.671996,5.7264992 84.71994 0 0 0.299617,-58.96844 58.671996,5.7264992 84.71994 0 0 -11.10171,-57.87748 z"
         style="fill:#1a1a1a;fill-opacity:1;stroke:none" />
      <path
         style="fill:#1a1a1a;fill-opacity:1;stroke:none"
         d="m 461.96545,754.4023 a 11.014214,58.672004 5.3895121 0 1 5.44497,59.48314 11.014214,58.672004 5.3895121 0 1 -16.48036,57.34098 5.7264992,58.671996 5.3944624 0 1 -0.18186,-58.96892 5.7264992,58.671996 5.3944624 0 1 11.21725,-57.8552 z"
         id="path4413"
         inkscape:connector-curvature="0" />
    </g>
  </g>
</svg>
