<?xml version="1.0" encoding="UTF-8" standalone="no"?>
<!-- Created with Inkscape (http://www.inkscape.org/) -->

<svg
   xmlns:dc="http://purl.org/dc/elements/1.1/"
   xmlns:cc="http://creativecommons.org/ns#"
   xmlns:rdf="http://www.w3.org/1999/02/22-rdf-syntax-ns#"
   xmlns:svg="http://www.w3.org/2000/svg"
   xmlns="http://www.w3.org/2000/svg"
   xmlns:sodipodi="http://sodipodi.sourceforge.net/DTD/sodipodi-0.dtd"
   xmlns:inkscape="http://www.inkscape.org/namespaces/inkscape"
   width="241.5761mm"
   height="133.23792mm"
   viewBox="0 0 855.97829 472.10285"
   id="svg2"
   version="1.1"
   inkscape:version="0.91 r13725"
   sodipodi:docname="Car4.svg"
   inkscape:export-filename="/Users/jonathanloov/Dropbox/Teammajim/Node/Trafic/Web/Cars/Car1.png"
   inkscape:export-xdpi="90"
   inkscape:export-ydpi="90">
  <sodipodi:namedview
     id="base"
     pagecolor="#ffffff"
     bordercolor="#666666"
     borderopacity="1.0"
     inkscape:pageopacity="0.0"
     inkscape:pageshadow="2"
     inkscape:zoom="0.87753194"
     inkscape:cx="394.39025"
     inkscape:cy="190.87505"
     inkscape:document-units="px"
     inkscape:current-layer="layer1"
     showgrid="false"
     inkscape:snap-page="false"
     inkscape:object-nodes="true"
     inkscape:snap-nodes="false"
     showguides="true"
     inkscape:guide-bbox="true"
     inkscape:snap-smooth-nodes="true"
     inkscape:snap-center="false"
     inkscape:snap-object-midpoints="true"
     inkscape:window-width="1436"
     inkscape:window-height="855"
     inkscape:window-x="4"
     inkscape:window-y="1"
     inkscape:window-maximized="1"
     fit-margin-top="0"
     fit-margin-left="0"
     fit-margin-right="0"
     fit-margin-bottom="0" />
  <defs
     id="defs4" />
  <metadata
     id="metadata7">
    <rdf:RDF>
      <cc:Work
         rdf:about="">
        <dc:format>image/svg+xml</dc:format>
        <dc:type
           rdf:resource="http://purl.org/dc/dcmitype/StillImage" />
        <dc:title></dc:title>
      </cc:Work>
    </rdf:RDF>
  </metadata>
  <g
     id="layer1"
     inkscape:groupmode="layer"
     inkscape:label="Layer 1"
     transform="translate(-7.9346544,-496.66207)">
    <path
       inkscape:connector-curvature="0"
       id="path4399"
       d="m 742.34,507.0026 a 11.734846,58.674231 88.54994 0 0 -58.95251,-10.24692 11.734846,58.674231 88.54994 0 0 -58.35856,13.2165 6.1011686,58.674231 88.54994 0 0 58.80994,4.61461 6.1011686,58.674231 88.54994 0 0 58.50113,-7.58419 z"
       style="fill:#1a1a1a;fill-opacity:1;stroke:none" />
    <path
       style="fill:#1a1a1a;fill-opacity:1;stroke:none"
       d="m 742.34,958.4244 a 58.674231,11.734846 1.45006 0 1 -58.95251,10.24692 58.674231,11.734846 1.45006 0 1 -58.35856,-13.2165 58.674231,6.1011686 1.45006 0 1 58.80994,-4.61461 58.674231,6.1011686 1.45006 0 1 58.50113,7.58419 z"
       id="path4404"
       inkscape:connector-curvature="0" />
    <path
       style="fill:#1a1a1a;fill-opacity:1;stroke:none"
       d="m 222.28544,514.85785 a 11.014214,58.672004 84.72489 0 0 -59.47214,-5.56373 11.014214,58.672004 84.72489 0 0 -57.37378,16.36582 5.7264992,58.671996 84.71994 0 0 58.96844,0.29962 5.7264992,58.671996 84.71994 0 0 57.87748,-11.10171 z"
       id="path4411"
       inkscape:connector-curvature="0" />
    <path
       inkscape:connector-curvature="0"
       id="path4413"
       d="m 222.29731,950.69288 a 58.672004,11.014214 5.3895121 0 1 -59.48314,5.44497 58.672004,11.014214 5.3895121 0 1 -57.34098,-16.48036 58.671996,5.7264992 5.3944624 0 1 58.96892,-0.18186 58.671996,5.7264992 5.3944624 0 1 57.8552,11.21725 z"
       style="fill:#1a1a1a;fill-opacity:1;stroke:none" />
    <path
       style="fill:#5fb4cb"
       d="M 427.98828 259.90625 L 234.44727 453.44922 C 318.56143 455.69177 407.27473 453.84845 430.75586 452.41602 C 464.24974 450.37278 544.53645 455.81823 617.18359 459.38477 A 58.674231 11.734846 1.45006 0 1 617.0957 458.79102 A 58.674231 6.1011686 1.45006 0 1 624.16992 456.08594 L 427.98828 259.90625 z "
       transform="translate(7.9346544,496.66207)"
       id="polygon3558" />
    <path
       style="fill:#eea400"
       d="M 853.31055 291.91016 L 690.47266 454.74805 A 58.674231 6.1011686 1.45006 0 1 734.2793 461.35742 C 742.85098 460.72936 749.40657 459.72594 753.33203 458.24414 C 788.27752 445.05268 832.47924 393.81207 849.09766 366.60156 C 857.87207 352.2346 856.03983 322.68215 853.31055 291.91016 z "
       transform="translate(7.9346544,496.66207)"
       id="polygon3560" />
    <path
       style="fill:#596277"
       d="M 192.76172 24.677734 A 5.7264992 58.671996 84.71994 0 1 156.47461 29.296875 A 5.7264992 58.671996 84.71994 0 1 97.505859 28.996094 A 11.014214 58.672004 84.72489 0 1 97.574219 28.242188 C 87.151369 30.177177 78.836501 32.411971 73.306641 34.994141 C 28.147601 56.081141 26.770194 73.49032 16.527344 98.21875 C -0.59196625 139.54843 0.41210938 235.64844 0.41210938 235.64844 C 0.41210938 235.64844 -0.59196625 331.74649 16.527344 373.07617 C 26.770194 397.80459 28.147601 415.21378 73.306641 436.30078 C 78.831041 438.8804 87.134589 441.1132 97.542969 443.04688 A 58.672004 11.014214 5.3895121 0 1 97.539062 442.99414 A 58.671996 5.7264992 5.3944624 0 1 156.50781 442.8125 A 58.671996 5.7264992 5.3944624 0 1 192.69727 447.49023 L 404.13477 236.05078 L 192.76172 24.677734 z "
       transform="translate(7.9346544,496.66207)"
       id="polygon3562" />
    <path
       style="fill:#5fb4cb"
       d="M 734.23047 9.9375 A 11.734846 58.674231 88.54994 0 1 734.40625 10.574219 A 6.1011686 58.674231 88.54994 0 1 692.47266 17.486328 L 853.39648 178.41016 C 854.55722 165.23676 855.5399 152.30564 855.56836 140.73438 C 855.60566 125.58673 854.01928 112.75187 849.09766 104.69336 C 832.47924 77.482839 788.27752 26.242241 753.33203 13.050781 C 749.3993 11.566231 742.82562 10.56533 734.23047 9.9375 z "
       transform="translate(7.9346544,496.66207)"
       id="polygon3564" />
    <polygon
       style="fill:#8cd636"
       points="195.5835,67.434216 255.87231,127.72302 195.30859,188.28675 135.01978,127.99794 "
       id="polygon3566"
       transform="matrix(3.3971246,0,0,3.3971246,1.0918537,297.88155)" />
    <polygon
       style="fill:#eea400"
       points="128,120.97876 183.32184,65.656132 72.677369,65.656132 "
       id="polygon3570"
       transform="matrix(3.3971246,0,0,3.3971246,1.0918537,297.88155)" />
    <path
       style="fill:#000000;fill-rule:evenodd;stroke:#000000;stroke-width:0.80072349px;stroke-linecap:butt;stroke-linejoin:miter;stroke-opacity:1;fill-opacity:0.22222222"
       d="m 843.71328,830.15516 c -1.75444,-46.39278 -9.89528,-92.93359 -4.29297,-139.45898 1.76964,-22.68626 6.06525,-45.31273 3.30992,-68.01947 -1.99211,-12.98085 -10.04396,-23.68545 -18.76577,-32.9908 -19.52706,-23.85518 -40.42784,-48.37132 -69.4127,-60.5408 -25.07113,-6.99665 -51.20511,-1.88221 -76.77793,-3.00362 -20.27051,0.5572 -40.59462,1.68407 -60.87695,2.70899 39.66933,113.04954 42.4135,237.31123 15.96141,353.63147 -4.3225,17.81701 -9.50449,35.429 -15.62352,52.71228 46.28726,1.4052 93.12413,7.78276 138.9482,-0.49604 30.39501,-13.39116 50.82872,-41.26232 72.54984,-65.28912 8.76266,-11.1334 15.28507,-24.8185 14.98047,-39.25391 z"
       id="path3581"
       inkscape:connector-curvature="0" />
    <path
       style="fill:#1a1a1a;fill-rule:evenodd;stroke:#000000;stroke-width:0.82838303px;stroke-linecap:butt;stroke-linejoin:miter;stroke-opacity:1"
       d="m 636.96133,722.27235 c -1.24547,-64.67518 -12.16385,-128.80934 -37.36914,-186.08398 -37.61447,6.69201 -75.29888,12.33133 -112.9961,17.05078 20.24415,52.81476 29.24196,110.70313 30.36524,169.0332 0.0202,65.50713 -7.73286,130.99343 -30.28906,190.30078 32.8581,3.83716 65.69457,8.39542 98.46289,14.53907 4.89261,-0.18526 11.07305,4.32114 15.05273,1.41796 27.5867,-63.40047 36.79549,-134.82 36.77344,-206.25781 z"
       id="path3547"
       inkscape:connector-curvature="0" />
    <path
       style="fill:#1a1a1a;fill-opacity:1;fill-rule:evenodd;stroke:#000000;stroke-width:0.69536614px;stroke-linecap:butt;stroke-linejoin:miter;stroke-opacity:1"
       d="m 284.12852,559.45663 c -14.61742,1.15307 -29.64114,0.22983 -44.4113,0.82336 -47.25721,0.76121 -95.15018,2.00954 -141.17836,13.1138 -19.18215,6.77531 -35.35272,22.52043 -40.11319,42.69356 -15.93825,46.67692 -13.47338,96.61233 -13.23887,145.26128 1.35338,35.90432 4.40794,73.21587 21.49182,105.45148 12.77231,19.81288 37.30498,27.64834 59.679,30.25857 52.36618,6.389 105.06342,7.21936 157.82178,7.63314 -36.4963,-111.2369 -36.19029,-233.99754 -0.0509,-345.23519 z"
       id="path3445"
       inkscape:connector-curvature="0" />
    <path
       style="fill:#1a1a1a;fill-rule:evenodd;stroke:#000000;stroke-width:0.80072349px;stroke-linecap:butt;stroke-linejoin:miter;stroke-opacity:1"
       d="m 577.57266,937.46962 c -3.7783,0.34633 -8.519,-2.5058 -12.4375,-2.35742 -75.97075,-14.24355 -228.43164,-27.87891 -228.43164,-27.87891 0,0 -55.42487,21.23148 -69.00391,32.48047 71.51364,-1.06121 223.23287,-4.45194 294.60547,1.39648 4.56076,-0.77784 10.3215,3.10065 14.03125,-0.34765 0.4205,-1.09489 0.8245,-2.19536 1.23633,-3.29297 z m -0.0117,-408.92774 c -0.58632,-1.56439 -1.17546,-3.1269 -1.7793,-4.68554 -81.65866,6.00585 -236.84,2.80175 -308.15039,2.27929 11.43307,12.43104 69.2168,32.47852 69.2168,32.47852 0,0 11.56256,-1.27867 17.34375,-1.90625 74.42724,-5.95355 149.0343,-15.01657 223.36914,-28.16602 z"
       id="path3574"
       inkscape:connector-curvature="0"
       sodipodi:nodetypes="ccccccccccccc" />
  </g>
</svg>
