<?xml version="1.0" encoding="UTF-8" standalone="no"?>
<!-- Created with Inkscape (http://www.inkscape.org/) -->

<svg
   xmlns:dc="http://purl.org/dc/elements/1.1/"
   xmlns:cc="http://creativecommons.org/ns#"
   xmlns:rdf="http://www.w3.org/1999/02/22-rdf-syntax-ns#"
   xmlns:svg="http://www.w3.org/2000/svg"
   xmlns="http://www.w3.org/2000/svg"
   xmlns:sodipodi="http://sodipodi.sourceforge.net/DTD/sodipodi-0.dtd"
   xmlns:inkscape="http://www.inkscape.org/namespaces/inkscape"
   width="241.5761mm"
   height="133.23792mm"
   viewBox="0 0 855.97829 472.10285"
   id="svg2"
   version="1.1"
   inkscape:version="0.91 r13725"
   sodipodi:docname="Car4Trasig.svg"
   inkscape:export-filename="/Users/jonathanloov/Dropbox/Teammajim/Node/Traffic/Web/Textures/Cars/Car4.png"
   inkscape:export-xdpi="90"
   inkscape:export-ydpi="90">
  <sodipodi:namedview
     id="base"
     pagecolor="#ffffff"
     bordercolor="#666666"
     borderopacity="1.0"
     inkscape:pageopacity="0.0"
     inkscape:pageshadow="2"
     inkscape:zoom="0.31025439"
     inkscape:cx="384.24874"
     inkscape:cy="453.3533"
     inkscape:document-units="px"
     inkscape:current-layer="layer1"
     showgrid="false"
     inkscape:snap-page="false"
     inkscape:object-nodes="true"
     inkscape:snap-nodes="false"
     showguides="true"
     inkscape:guide-bbox="true"
     inkscape:snap-smooth-nodes="true"
     inkscape:snap-center="false"
     inkscape:snap-object-midpoints="true"
     inkscape:window-width="1436"
     inkscape:window-height="855"
     inkscape:window-x="4"
     inkscape:window-y="1"
     inkscape:window-maximized="1"
     fit-margin-top="0"
     fit-margin-left="0"
     fit-margin-right="0"
     fit-margin-bottom="0" />
  <defs
     id="defs4" />
  <metadata
     id="metadata7">
    <rdf:RDF>
      <cc:Work
         rdf:about="">
        <dc:format>image/svg+xml</dc:format>
        <dc:type
           rdf:resource="http://purl.org/dc/dcmitype/StillImage" />
        <dc:title></dc:title>
      </cc:Work>
    </rdf:RDF>
  </metadata>
  <g
     id="layer1"
     inkscape:groupmode="layer"
     inkscape:label="Layer 1"
     transform="translate(-7.9346544,-496.66207)">
    <g
       id="g4642"
       transform="matrix(13.51661,0,0,13.51661,125.29504,87.496763)">
      <path
         id="path4622"
         d="m 57,26.2 c 0,0 -3,2.8 -8.1,6.1 C 47.5,24.2 43.6,14.2 36,2 36,2 33.5,15.1 25.2,27.4 21.6,21.8 20,17.4 20,17.4 -6,43.5 15.6,62 29.2,62 46.6,62 61.9,53.6 57,26.2"
         inkscape:connector-curvature="0"
         style="fill:#ff9d33" />
      <path
         id="path4624"
         d="m 46.7,49.4 c 1.5,-3.3 2.6,-7.6 2.8,-13 0,0 -2.1,1.8 -5.7,4.1 -1,-5.4 -3.7,-12 -9,-20.2 0,0 -1.7,8.7 -7.5,17 -2.5,-3.7 -3.6,-6.7 -3.6,-6.7 -4.3,6.8 -6,12.2 -6.1,16.5 -2.4,-0.9 -3.9,-1.6 -3.9,-1.6 4.1,12.2 12.6,14.9 16.4,14.9 6.8,0 13.7,-2 20.5,-11.7 0,-0.1 -1.5,0.3 -3.9,0.7"
         inkscape:connector-curvature="0"
         style="fill:#ffce31" />
      <path
         id="path4626"
         d="m 21.9,43.9 c 0,0 2.8,3.8 4.9,2.9 0,0 4,-6.3 9.8,-9.8 0,0 -1.2,9.6 0.2,11.3 1.8,2.3 6.7,-2.5 6.7,-2.5 0,5.7 -6.2,12.8 -11.8,12.8 -5.4,0 -13.2,-6.2 -9.8,-14.7"
         inkscape:connector-curvature="0"
         style="fill:#ffdf85" />
      <g
         id="g4628"
         style="fill:#ff9d33">
        <path
           id="path4630"
           d="m 49.8,18.1 c 2.1,-3 3.5,-6.2 3.5,-6.2 3.5,5.8 1.4,9.3 -0.1,10.4 -2.1,1.6 -5.8,-0.7 -3.4,-4.2"
           inkscape:connector-curvature="0" />
        <path
           id="path4632"
           d="M 11.6,17.1 C 9.5,13.6 9.3,9.2 9.3,9.2 c -5,7.5 -3.1,11.7 -1.4,12.9 2.2,1.7 6,-0.9 3.7,-5"
           inkscape:connector-curvature="0" />
        <path
           id="path4634"
           d="m 23.2,9.3 c 0.3,-2.4 -0.7,-4.8 -0.7,-4.8 4.7,3.1 4.7,5.7 4.1,6.8 -0.9,1.3 -3.7,0.7 -3.4,-2"
           inkscape:connector-curvature="0" />
      </g>
    </g>
    <path
       inkscape:connector-curvature="0"
       id="path4399"
       d="m 742.33819,507.0179 a 11.734846,58.674231 88.54994 0 0 -58.95251,-10.24692 11.734846,58.674231 88.54994 0 0 -58.35856,13.2165 6.1011686,58.674231 88.54994 0 0 58.80994,4.61461 6.1011686,58.674231 88.54994 0 0 58.50113,-7.58419 z"
       style="fill:#1a1a1a;fill-opacity:1;stroke:none" />
    <path
       style="fill:#1a1a1a;fill-opacity:1;stroke:none"
       d="m 742.34,958.4244 a 58.674231,11.734846 1.45006 0 1 -58.95251,10.24692 58.674231,11.734846 1.45006 0 1 -58.35856,-13.2165 58.674231,6.1011686 1.45006 0 1 58.80994,-4.61461 58.674231,6.1011686 1.45006 0 1 58.50113,7.58419 z"
       id="path4404"
       inkscape:connector-curvature="0" />
    <path
       style="fill:#1a1a1a;fill-opacity:1;stroke:none"
       d="m 222.28544,514.85785 a 11.014214,58.672004 84.72489 0 0 -59.47214,-5.56373 11.014214,58.672004 84.72489 0 0 -57.37378,16.36582 5.7264992,58.671996 84.71994 0 0 58.96844,0.29962 5.7264992,58.671996 84.71994 0 0 57.87748,-11.10171 z"
       id="path4411"
       inkscape:connector-curvature="0" />
    <path
       inkscape:connector-curvature="0"
       id="path4413"
       d="m 222.29731,950.69288 a 58.672004,11.014214 5.3895121 0 1 -59.48314,5.44497 58.672004,11.014214 5.3895121 0 1 -57.34098,-16.48036 58.671996,5.7264992 5.3944624 0 1 58.96892,-0.18186 58.671996,5.7264992 5.3944624 0 1 57.8552,11.21725 z"
       style="fill:#1a1a1a;fill-opacity:1;stroke:none" />
    <path
       style="fill:#5fb4cb"
       d="M 427.98828 259.90625 L 234.44727 453.44922 C 318.56143 455.69177 407.27473 453.84845 430.75586 452.41602 C 464.24974 450.37278 544.53645 455.81823 617.18359 459.38477 A 58.674231 11.734846 1.45006 0 1 617.0957 458.79102 A 58.674231 6.1011686 1.45006 0 1 624.16992 456.08594 L 427.98828 259.90625 z "
       transform="translate(7.9346544,496.66207)"
       id="polygon3558" />
    <path
       style="fill:#eea400"
       d="m 879.43681,811.4079 -57.65429,57.6543 c 0.048,0.0728 0.0922,0.14812 0.14062,0.2207 2.57198,3.85797 5.31955,7.596 7.97852,11.39453 2.65897,3.79853 5.22607,7.66368 7.97656,11.39648 2.56914,3.48669 5.37796,6.79107 7.97656,10.25586 1.96057,2.6141 3.88472,5.25775 5.69727,7.97657 1.03742,1.55614 2.00412,3.16118 2.9668,4.76757 9.82163,-11.65367 18.02595,-22.8899 23.36914,-31.63867 8.11577,-13.28852 7.14026,-39.5925 4.79101,-67.8125 -1.04605,-1.3591 -2.00272,-2.59618 -3.24219,-4.21484 z m -70.76953,70.76953 -40.75586,40.75586 c 3.3468,0.0934 6.71482,-0.0918 9.57032,-0.0918 l 11.39453,0 c 1.13956,0 2.30249,0.22348 3.41992,0 0.83289,-0.16658 1.42796,-1.13867 2.27734,-1.13867 0.5372,0 0.66015,1.37891 1.14063,1.13867 0.75971,-0.37986 0.53807,-1.67869 1.13867,-2.27929 0.2686,-0.2686 0.87203,0.2686 1.14062,0 0.2686,-0.2686 -0.21069,-0.82262 0,-1.13868 0.59596,-0.89394 1.68334,-1.38535 2.2793,-2.27929 0.21071,-0.31606 0,-0.75882 0,-1.13867 0,-1.13956 -0.42322,-2.36187 0,-3.41993 0.39902,-0.99754 1.98414,-1.24624 2.2793,-2.27929 0.52177,-1.82619 0,-3.798 0,-5.69727 0.37985,-1.51941 0.6434,-3.07278 1.13867,-4.55859 0.2686,-0.80579 0.90729,-1.46261 1.14063,-2.2793 1.0642,-3.72472 1.16422,-7.68414 2.27734,-11.39453 0.42941,-1.43137 0.98132,-2.81997 1.55859,-4.19922 z"
       id="polygon3560"
       inkscape:connector-curvature="0" />
    <path
       style="fill:#596277"
       d="M 192.76172 24.677734 A 5.7264992 58.671996 84.71994 0 1 156.47461 29.296875 A 5.7264992 58.671996 84.71994 0 1 97.505859 28.996094 A 11.014214 58.672004 84.72489 0 1 97.574219 28.242188 C 87.151369 30.177177 78.836501 32.411971 73.306641 34.994141 C 28.147601 56.081141 26.770194 73.49032 16.527344 98.21875 C -0.5919665 139.54843 0.41210938 235.64844 0.41210938 235.64844 C 0.41210938 235.64844 -0.5919665 331.74649 16.527344 373.07617 C 26.770194 397.80459 28.147601 415.21378 73.306641 436.30078 C 78.831041 438.8804 87.134589 441.11319 97.542969 443.04688 A 58.672004 11.014214 5.3895121 0 1 97.539062 442.99414 A 58.671996 5.7264992 5.3944624 0 1 156.50781 442.8125 A 58.671996 5.7264992 5.3944624 0 1 192.69727 447.49023 L 395.99414 244.19141 L 388.58984 244.19141 L 369.2168 244.19141 C 361.59545 244.19141 353.70701 245.09765 346.42578 241.91211 C 343.43212 240.60238 341.16804 238.02739 338.44922 236.21484 C 336.60631 234.98623 334.55429 234.08231 332.75195 232.79492 C 331.87769 232.17044 331.23237 231.27534 330.47266 230.51562 C 328.95325 228.99622 327.10599 227.74492 325.91406 225.95703 C 324.77938 224.25501 324.54958 222.08939 323.63477 220.25977 C 322.07423 217.13868 320.57484 217.00226 320.2168 213.42188 C 319.95223 210.7761 320.2168 208.10428 320.2168 205.44531 L 320.2168 199.74805 L 320.2168 190.63086 C 320.2168 189.11145 319.5373 187.43323 320.2168 186.07422 C 321.76905 182.96974 330.56239 174.588 332.75195 172.39844 C 334.34131 170.80908 335.51372 169.61476 336.62695 168.54297 L 302.32227 134.23828 C 293.81425 130.31886 285.18577 126.63799 276.91211 122.25781 C 271.03959 119.14883 265.76353 114.97355 259.82031 112.00195 C 255.84363 110.0136 251.20816 109.53562 247.28516 107.44336 C 245.38918 106.43217 244.5394 104.03839 242.72656 102.88477 C 240.28595 101.33165 237.23062 100.95517 234.75 99.466797 C 233.36808 98.637647 232.46964 97.188388 231.33008 96.048828 C 229.43082 95.289118 227.51299 94.575321 225.63281 93.769531 C 224.85211 93.434941 222.52951 92.834916 223.35352 92.628906 C 230.51812 90.837756 230.63647 93.613458 237.0293 96.048828 C 243.47219 98.503268 253.59567 101.44823 260.95898 104.02539 C 266.28888 105.89085 271.53788 107.98903 276.91211 109.72266 C 277.48161 109.90637 277.69193 109.97157 278.22852 110.14453 L 192.76172 24.677734 z "
       transform="translate(7.9346544,496.66207)"
       id="polygon3562" />
    <path
       style="fill:#5fb4cb"
       d="m 837.37849,547.31103 c -6.17551,9.76708 -4.55705,9.24221 -9.48438,21.56054 -1.38942,3.47355 -3.16917,6.78232 -4.55859,10.25586 -0.11727,0.29319 -0.25774,0.68262 -0.37891,0.99024 -3.37309,-1.99198 -2.16271,-0.25157 -7.7539,-0.8711 -1.07528,-0.81449 -2.18245,-1.58898 -3.26172,-2.39843 -1.51941,-1.13956 -2.92998,-2.44081 -4.55859,-3.41797 -0.32572,-0.19543 -0.83674,0.22791 -1.14063,0 -2.80165,-2.10124 -5.10755,-4.82958 -7.97656,-6.83789 -0.98407,-0.68884 -2.29325,-0.7169 -3.41797,-1.13867 -1.91533,-0.71825 -3.71472,-1.78317 -5.69922,-2.2793 -1.10554,-0.27638 -2.36607,0.4383 -3.41797,0 -3.60999,-1.50416 -6.64586,-4.1931 -10.25586,-5.69727 -1.0519,-0.43829 -2.31244,0.27639 -3.41797,0 -1.65755,-0.41438 -3.12416,-1.44125 -4.73047,-2.0039 l 84.51172,84.51172 c -0.0437,-0.16533 -0.0785,-0.33123 -0.0137,-0.46094 0.48048,-0.96096 1.79882,-1.31834 2.2793,-2.2793 0.53719,-1.07439 0.52261,-2.38795 1.14062,-3.41797 0.55277,-0.92128 2.08711,-1.22223 2.2793,-2.27929 0.61155,-3.36353 0,-6.83718 0,-10.25586 l 0,-12.53516 0,-28.48828 0,-14.04883 c -6.46651,-6.65924 -13.25729,-13.08941 -20.1445,-18.9082 z m -41.4707,27.26758 c -0.02,-0.068 0.86111,0.15024 1.06054,0.375 -0.53442,-0.17365 -1.05146,-0.34416 -1.06054,-0.375 z m 91.60937,26.93945 c -1.31282,2.00345 -2.65061,3.9926 -3.78515,6.09961 -0.9698,1.80107 -1.19515,3.96262 -2.2793,5.69726 -0.85413,1.36662 -2.75109,1.95084 -3.41797,3.41797 -3.84163,8.45159 -1.05419,8.82053 -3.41797,17.09375 -0.79473,2.78157 -2.75734,5.16059 -3.41992,7.97657 -0.87436,3.716 -0.9571,7.58332 -1.13867,11.39648 -0.0776,1.63019 -0.10549,3.26073 -0.11328,4.89258 l 31.88671,31.88672 c 1.16074,-13.1734 2.14342,-26.10453 2.17188,-37.67578 0.0373,-15.14765 -1.54908,-27.98251 -6.4707,-36.04102 -2.6734,-4.37734 -6.06795,-9.38151 -10.01563,-14.74414 z"
       id="polygon3564"
       inkscape:connector-curvature="0" />
    <path
       style="fill:#8cd636"
       d="m 718.11846,566.59734 c -1.77246,2.58651 -3.55936,4.97304 -5.10352,7.74219 l -0.5332,0 c -7.2725,0 -15.90461,-1.19109 -21.65234,4.55664 -0.84938,0.84938 -0.28931,2.57054 -1.13868,3.41992 -3.15913,3.15913 -3.71256,-1.21301 -5.69726,3.41797 -0.76298,1.78027 -0.46055,3.8837 -1.14063,5.69726 -0.48089,1.28237 -1.94712,2.09124 -2.27929,3.41993 -1.47514,5.90056 -1.13867,13.33098 -1.13867,19.37109 l 0,29.62891 0,20.37695 c 0.40648,0.0458 0.86175,0.0932 1.13867,0.13476 2.66294,0.39945 5.27135,1.09722 7.89062,1.73243 0.0391,0.94291 0.0879,1.88585 0.0879,2.82617 l 0,7.97656 0,7.97852 1.93946,0 c -0.48715,1.54456 -0.92705,3.09873 -1.29297,4.66992 2.44373,-0.0481 4.88789,-0.11328 7.33008,-0.11328 l 15.95312,0 14.81445,0 c 5.31794,0 10.65212,0.42408 15.95313,0 4.23336,-0.33867 8.43791,-1.15992 12.53516,-2.27735 1.62054,-0.44196 3.20398,-1.00384 4.77734,-1.59375 1.0662,0.15692 2.13283,0.31958 3.20117,0.45313 3.79854,0.37985 7.58182,0.94998 11.39453,1.14062 3.79379,0.18969 7.60761,-0.27064 11.39649,0 1.56219,0.11158 2.99587,1.0086 4.55664,1.13867 1.46036,0.1217 2.92902,0.0776 4.39648,0.0234 -0.0195,0.75989 -0.002,1.51615 0.16211,2.25586 0.68162,3.06727 5.06313,8.4811 6.83789,10.25586 0.32755,0.32755 0.77671,0.48069 1.22656,0.63672 0.44248,-2.34034 0.78559,-4.69567 1.07227,-7.06055 -0.81065,-0.86258 -1.59744,-1.74442 -2.29883,-2.69336 -0.9786,-1.32398 -1.70198,-2.34558 -2.47461,-3.42578 0.065,0.004 0.13031,0.003 0.19531,0.008 1.73489,0.11566 3.44391,0.47189 5.16016,0.76563 0.47934,-4.82479 0.8995,-9.65884 1.67773,-14.43945 0.52969,-3.25376 1.31856,-6.46264 2.10547,-9.66993 0.78067,-0.6323 1.57779,-1.24026 2.45313,-1.72656 0.79427,-0.44126 1.46982,-0.76949 2.08008,-1.04101 l -95.58594,-95.58594 z"
       id="path4539"
       inkscape:connector-curvature="0" />
    <path
       style="fill:#8cd636"
       d="m 859.60372,734.69668 c -0.1773,1.7846 -0.36644,3.56728 -0.58203,5.3457 1.96332,2.08909 4.09247,4.04593 5.67773,6.42383 2.11414,3.1712 3.66011,6.68222 5.3711,10.0957 -0.66065,-0.31427 -1.38242,-0.5235 -1.95117,-0.97851 -3.15307,-2.52245 -5.96412,-5.45606 -9.11719,-7.97852 -0.30154,-0.24123 -0.67773,-0.37188 -1.05274,-0.50195 -0.0316,0.16702 -0.0552,0.3351 -0.0879,0.50195 -1.6632,8.50081 -4.38159,16.76331 -6.83593,25.07032 -0.72117,2.44085 -1.66731,5.49726 -2.66016,8.6621 1.33382,-1.99824 -2.56073,2.17424 7.21875,-6.38281 1.37216,-1.20063 2.5084,-3.12537 4.55664,-3.41797 1.4841,-0.21202 12.00732,0 13.67578,0 l 5.84766,0 c 2.98037,4.18383 6.02165,8.32781 8.96679,12.53516 2.27912,1.89927 5.00751,3.36094 6.83594,5.69726 5.0645,6.47132 8.71359,13.96163 13.67578,20.51172 0.37653,0.49703 0.76976,0.98105 1.16016,1.4668 -0.0216,-0.87052 -0.15353,-1.7472 -0.0215,-2.60547 0.94341,-6.13214 3.02393,-13.03707 3.41993,-19.37305 0.12716,-2.03461 0.10495,-4.07343 0.0645,-6.11328 0.7279,0.53221 1.46437,1.05438 2.21484,1.55469 6.90697,4.60465 -5.40706,-6.19734 7.97657,5.69922 1.60602,1.42757 2.94147,3.14361 4.55859,4.55859 0.17311,0.15147 9.05683,6.77024 9.11523,6.83594 1.16768,1.31363 2.40658,3.23986 3.625,5.26953 l 13.20899,-13.20898 -32.42578,-32.42578 c -0.78841,0.71799 -1.63056,1.3325 -2.64063,1.62109 -1.84639,0.52754 -3.76186,0.5611 -5.69726,0.45313 l 0,-0.45313 0,-9.95898 -11.79493,-11.79493 c -1.02902,-0.26206 -2.01025,-0.70067 -3.01953,-1.03711 -0.75971,-0.37984 -1.45527,-0.93462 -2.27929,-1.14062 -0.73702,-0.18426 -1.53434,0.14899 -2.2793,0 -1.17787,-0.23558 -2.34358,-0.60148 -3.41797,-1.13867 -0.48048,-0.24024 -0.61073,-1.05233 -1.14062,-1.14063 -1.87342,-0.31224 -3.80962,0.20973 -5.69727,0 -1.55659,-0.17296 -3.00451,-0.94441 -4.55859,-1.13867 -1.50768,-0.18846 -3.05092,0.18846 -4.5586,0 -1.55408,-0.19426 -2.99885,-0.99883 -4.55859,-1.14062 -2.64805,-0.24074 -5.32434,0.18944 -7.97656,0 -0.94482,-0.0675 -1.88143,-0.21303 -2.81641,-0.37305 z"
       id="path4537"
       inkscape:connector-curvature="0" />
    <path
       style="fill:#8cd636"
       d="m 887.87876,799.05009 c 0.007,0.27186 0.005,0.54266 -0.0215,0.8125 -2.75941,27.5942 0.3576,-7.41938 -2.27929,13.67578 -0.14135,1.13076 0.14134,2.28721 0,3.41797 -0.24024,1.92192 -0.75882,3.798 -1.13867,5.69727 -0.37986,1.89926 -0.41934,3.90087 -1.13868,5.69922 -0.76906,1.92264 -2.41699,3.41611 -3.24804,5.30273 l 20.36523,-20.36523 c -3.98946,-4.90226 -8.58041,-9.31472 -12.53906,-14.24024 z"
       id="path4535"
       inkscape:connector-curvature="0" />
    <path
       style="fill:#8cd636"
       d="m 830.7665,786.08078 c -0.39719,0.59504 -1.20058,1.66687 -3.03906,3.87305 -2.31251,2.775 -7.1531,6.01638 -9.11524,7.97852 -0.6006,0.6006 -0.54002,1.67869 -1.14062,2.27929 -1.34298,1.34298 -3.03723,2.27841 -4.55664,3.41797 -1.51941,1.13956 -3.02259,2.30087 -4.5586,3.41797 -2.64264,1.92192 -5.09951,4.15005 -7.97656,5.69922 -2.11524,1.13898 -4.75202,1.08542 -6.83789,2.27734 -0.73747,0.42141 -0.41229,1.8423 -1.14062,2.2793 -9.58934,5.7536 -8.75242,4.71736 -10.66602,4.50195 1.47298,2.44525 3.03297,4.82048 4.96875,6.89453 2.59181,2.77694 6.62941,3.96739 9.11719,6.8379 2.56132,2.95537 3.52793,7.00185 5.69726,10.25586 1.36858,2.05286 3.18458,3.76758 4.76758,5.6621 0.01,0.008 0.0195,0.0156 0.0293,0.0234 4.15363,-9.71397 11.65605,-27.94119 12.29687,-29.61719 3.55168,-9.28898 8.52998,-24.2282 12.1543,-35.78125 z"
       id="path4533"
       inkscape:connector-curvature="0" />
    <path
       style="fill:#8cd636"
       d="m 756.12815,809.98216 c -8.8e-4,0.002 -10e-4,0.004 -0.002,0.006 -0.009,-0.0102 -0.0188,-0.0191 -0.0273,-0.0293 -0.45344,-0.36394 -0.90526,-0.72932 -1.34961,-1.10351 -3.08863,-2.60095 -5.60936,-5.97517 -9.11523,-7.97852 -2.00613,-1.14656 -4.53414,-0.96146 -6.83789,-1.13867 -4.54481,-0.3496 -9.11559,0 -13.67383,0 l -5.69922,0 c -1.51941,0 -3.08454,-0.36852 -4.55859,0 -1.64803,0.41201 -2.92326,1.81261 -4.55665,2.2793 -1.09572,0.31306 -2.53008,-0.71188 -3.41992,0 -1.32651,1.0612 -1.07809,3.35739 -2.27929,4.55859 -0.84938,0.84938 -2.56859,0.2893 -3.41797,1.13867 -1.2012,1.20121 -1.17377,3.26881 -2.2793,4.5586 -1.23603,1.44203 -3.07551,2.23151 -4.55859,3.41797 -0.41948,0.33558 -1.03332,0.61386 -1.13867,1.14062 -0.29799,1.48991 0,3.03919 0,4.55859 l 0,13.67383 c -0.99946,-0.66631 -2.71342,-0.16722 -3.41993,-1.13867 -2.4979,-3.43462 -3.26183,-7.91729 -5.69726,-11.39648 -2.93062,-4.18661 -8.24278,-6.69929 -10.25586,-11.39649 -1.64595,-3.84054 0,-8.35677 0,-12.53515 l 0,-8.15235 c 4.98654,-0.79738 9.81473,-2.50149 14.81445,-3.24219 4.89921,-0.7258 9.86688,-0.91573 14.81445,-1.14062 3.41515,-0.15523 6.91051,0.70428 10.25586,0 4.00338,-0.84282 7.49158,-3.33635 11.39649,-4.55664 3.87788,-1.21184 5.48131,-1.30358 6.42578,-1.19727 -2.35627,-3.91157 -4.48813,-8.00309 -7.56641,-11.33789 -2.37538,-2.57334 -5.69744,-4.17892 -7.97656,-6.83789 -2.33212,-2.72082 -3.16333,-6.58324 -5.69727,-9.11719 -1.8018,-1.80179 -4.95953,-1.69612 -6.83789,-3.41796 -2.80011,-2.56676 -4.26142,-6.32601 -6.83789,-9.11719 -5.99954,-6.4995 -6.5409,-4.01549 -11.39453,-10.25586 -1.35982,-1.74834 -1.96139,-4.03038 -3.41992,-5.69727 -1.25067,-1.42934 -3.58143,-1.78936 -4.55859,-3.41796 -2.94704,-4.91173 -2.27735,-10.60227 -2.27735,-15.95508 l 0,-3.41797 c 0.16374,-1.1134 0.39184,-2.21326 0.64649,-3.30664 -0.21554,0.004 -0.43097,0.01 -0.64649,0.0137 l 0,-4.68359 -1.14062,0 -7.99805,0 c 0.007,-0.75986 0.0215,-1.51963 0.0215,-2.2793 l 0,-18.36914 c -4.79187,-0.54034 -17.74012,-1.36012 -21.65235,-2.14258 -19.27138,-3.85427 -5.61754,-3.67438 -25.07031,-4.55859 -4.17407,-0.18973 -8.35678,0 -12.53516,0 l -10.25586,0 -28.08789,0 -92.13476,92.13476 35.49609,35.4961 10.65625,0 35.32617,0 0,6.83593 c 0,1.13956 -0.36036,2.33883 0,3.41993 0.8675,2.60248 2.2793,-0.70511 2.2793,3.41796 0,0.84938 -1.14063,1.42993 -1.14063,2.2793 0,0.5372 0.76078,0.75882 1.14063,1.13867 0.75971,0.75971 1.79882,1.31834 2.2793,2.2793 0.33975,0.6795 -0.42141,1.64719 0,2.2793 0.47115,0.70673 1.53987,0.71921 2.27734,1.14062 1.92308,1.0989 4.03233,1.95944 5.69922,3.41797 2.85868,2.50135 4.02525,6.56202 6.83594,9.11719 17.08568,15.53244 2.24583,0.5877 14.81445,10.25586 3.20053,2.46195 5.93733,5.48797 9.11719,7.97656 5.56426,4.35464 11.41608,8.32947 17.09375,12.53516 4.57851,3.39149 8.90495,7.13774 13.67383,10.25585 5.1264,3.35188 10.82868,5.76532 15.95507,9.11719 4.76889,3.11812 8.76845,7.35722 13.67383,10.25586 3.52218,2.08128 7.70573,2.79345 11.39649,4.5586 5.05959,2.4198 9.53752,6.07686 14.81445,7.97656 8.41247,3.02849 18.67753,2.27929 27.34766,2.27929 4.20993,0 8.42552,0.0638 12.64062,0.10352 1.29976,0.87348 2.75399,1.93391 4.45313,3.31445 0.87851,0.7138 1.63103,1.37016 2.33398,2.00196 l 61.88867,-61.88867 c -2.26404,-3.34761 -4.33385,-6.85525 -7.24414,-9.62696 -3.96706,-3.77815 -9.59116,-5.46232 -13.67383,-9.11523 -3.22764,-2.88789 -4.91604,-7.19338 -7.97851,-10.25586 -3.39787,-3.39787 -7.40411,-6.11993 -11.15625,-9.12891 z"
       id="path4531"
       inkscape:connector-curvature="0" />
    <path
       style="fill:#8cd636"
       d="m 859.24205,724.38597 0,2.28125 0,7.29492 c -2.02338,-3.16586 -2.83952,-4.79286 -4.33789,-6.95899 0.6764,-0.50559 1.31761,-1.08137 2.05859,-1.47656 l 2.2793,-1.14062 z"
       id="polygon3566"
       inkscape:connector-curvature="0" />
    <path
       style="fill:#eea400"
       d="M 240.05078 24.261719 L 342.52148 126.73242 C 348.75366 128.30875 355.04172 129.67041 361.24023 131.375 C 368.88789 133.47811 376.31537 136.37382 384.03125 138.21094 C 411.26913 144.69615 406.77311 141.20785 434.17188 146.18945 C 437.01633 146.70662 439.82542 147.4049 442.62891 148.13281 C 450.07415 145.7355 460.05271 143.07495 464.93945 142.76953 C 467.24551 142.6254 469.47476 143.71827 471.77734 143.91016 C 474.04859 144.09943 476.33611 143.91016 478.61523 143.91016 L 496.27734 143.91016 L 615.92383 24.261719 L 240.05078 24.261719 z "
       transform="translate(7.9346544,496.66207)"
       id="polygon3570" />
    <path
       style="fill:#000000;fill-opacity:0.22222224;fill-rule:evenodd;stroke:#000000;stroke-width:0.80072349px;stroke-linecap:butt;stroke-linejoin:miter;stroke-opacity:1"
       d="m 700.34876,540.55684 c -0.2929,-0.0171 -0.55199,0.037 -0.73438,0.25586 -1.63127,1.95753 -2.13599,4.63687 -3.41992,6.83789 -2.45056,4.20097 -5.20835,7.38844 -7.44336,11.39649 l 19.97852,0 13.67578,0 c 4.17838,0 8.37559,-0.39615 12.53516,0 3.8563,0.36727 7.53534,1.94176 11.39453,2.27734 14.20809,1.23549 16.16269,0.79704 15.79687,0.38477 -1.71263,-0.55648 -0.28988,-0.32671 0,0 0.9835,0.31956 2.79015,0.84353 6.99414,1.89453 3.39751,0.84938 6.78899,1.78402 10.25586,2.27929 0.36156,0.0517 0.66899,0.0842 0.98438,0.11914 -1.07528,-0.81449 -2.18245,-1.58898 -3.26172,-2.39843 -1.51941,-1.13956 -2.92998,-2.44081 -4.55859,-3.41797 -0.32572,-0.19543 -0.83674,0.22791 -1.14063,0 -2.80165,-2.10124 -5.10755,-4.82958 -7.97656,-6.83789 -0.98407,-0.68884 -2.29325,-0.7169 -3.41797,-1.13867 -1.91533,-0.71825 -3.71472,-1.78317 -5.69922,-2.2793 -1.10554,-0.27638 -2.36607,0.4383 -3.41797,0 -3.60999,-1.50416 -6.64586,-4.1931 -10.25586,-5.69727 -1.0519,-0.43829 -2.31244,0.27639 -3.41797,0 -1.9845,-0.49612 -3.69337,-1.87812 -5.69921,-2.27929 -1.8624,-0.37248 -3.80743,0.18898 -5.69727,0 -14.37541,-1.43755 1.87776,-1.14063 -10.25586,-1.14063 l -13.67383,0 c -0.47482,0 -1.05676,-0.22736 -1.54492,-0.25586 z"
       id="path4527"
       inkscape:connector-curvature="0" />
    <path
       style="fill:#000000;fill-opacity:0.22222224;fill-rule:evenodd;stroke:#000000;stroke-width:0.80072349px;stroke-linecap:butt;stroke-linejoin:miter;stroke-opacity:1"
       d="m 786.5927,567.61182 c 0.43851,0.33217 0.87226,0.66927 1.29492,1.02149 1.65074,1.37561 2.90786,3.18297 4.55859,4.55859 0.0287,0.0239 0.0498,0.037 0.0781,0.0605 0.63515,-1.73404 1.23875,-3.28816 1.82226,-4.76953 -3.37309,-1.99198 -2.16271,-0.25157 -7.7539,-0.8711 z"
       id="path4525"
       inkscape:connector-curvature="0" />
    <path
       style="fill:#000000;fill-opacity:0.22222224;fill-rule:evenodd;stroke:#000000;stroke-width:0.80072349px;stroke-linecap:butt;stroke-linejoin:miter;stroke-opacity:1"
       d="m 809.77563,575.38421 c 0.8942,0.52806 2.02411,1.24784 3.79688,2.42969 0.31606,0.2107 0,0.75881 0,1.13867 l 0,5.96875 c 0.3454,0.52459 0.70789,1.14234 1.14062,2.00781 0.16987,0.33976 0,0.76078 0,1.14063 l 0,5.69726 c 0,1.89927 0.37248,3.83489 0,5.69727 -0.044,0.22013 -0.13021,0.42606 -0.23437,0.625 0.18191,1.30798 0.3002,2.61706 0.23437,3.93359 -0.21208,4.24159 -1.51958,8.35677 -2.27929,12.53516 -0.75971,1.89926 -2.04483,3.66517 -2.2793,5.69726 -0.91538,7.93333 -0.14813,16.00735 -1.13867,23.93164 -0.50592,4.04734 -1.47948,8.01408 -2.45313,11.98242 0.78067,-0.6323 1.57779,-1.24026 2.45313,-1.72656 5.88593,-3.26995 5.96569,-1.04398 11.39453,-5.69726 1.03986,-0.89131 1.31086,-2.45149 2.2793,-3.41993 11.03244,-11.03245 -1.71498,3.32954 9.11718,-5.69726 1.05214,-0.87679 1.22716,-2.54119 2.2793,-3.41797 1.30502,-1.08752 3.19764,-1.26005 4.55664,-2.2793 0.30388,-0.22791 -0.16987,-0.80087 0,-1.14062 0.48048,-0.96096 1.79882,-1.31834 2.2793,-2.2793 0.53719,-1.07439 0.52261,-2.38795 1.14062,-3.41797 0.55277,-0.92128 2.08711,-1.22223 2.2793,-2.27929 0.61155,-3.36353 0,-6.83718 0,-10.25586 l 0,-12.53516 0,-12.56055 c -8.88428,-10.61729 -18.192,-21.06352 -28.52734,-30.1875 -0.34286,0.90514 -0.66445,1.7705 -1.10157,2.86328 -1.38942,3.47355 -3.16917,6.78232 -4.55859,10.25586 -0.11727,0.29319 -0.25774,0.68262 -0.37891,0.99024 z"
       id="path4523"
       inkscape:connector-curvature="0" />
    <path
       style="fill:#000000;fill-opacity:0.22222224;fill-rule:evenodd;stroke:#000000;stroke-width:0.80072349px;stroke-linecap:butt;stroke-linejoin:miter;stroke-opacity:1"
       d="m 871.29613,714.25352 c -0.70001,0.56699 -1.38714,1.15266 -2.10547,1.69141 l -11.39648,5.69727 0,2.28125 0,7.29492 c 1.0126,1.58434 2.42376,3.65948 4.36328,6.37109 0.065,0.004 0.13031,0.003 0.19531,0.008 1.73489,0.11566 3.44391,0.47189 5.16016,0.76563 0.47934,-4.82479 0.8995,-9.65884 1.67773,-14.43945 0.52969,-3.25376 1.31856,-6.46264 2.10547,-9.66993 z"
       id="path4521"
       inkscape:connector-curvature="0" />
    <path
       style="fill:#000000;fill-opacity:0.22222224;fill-rule:evenodd;stroke:#000000;stroke-width:0.80072349px;stroke-linecap:butt;stroke-linejoin:miter;stroke-opacity:1"
       d="m 866.06208,737.97566 c -0.1773,1.7846 -0.36644,3.56728 -0.58203,5.3457 1.96332,2.08909 4.09247,4.04593 5.67773,6.42383 2.11414,3.1712 3.66011,6.68222 5.3711,10.0957 0.10975,0.0522 0.2211,0.10012 0.32617,0.16016 1.92308,1.0989 3.71815,2.42743 5.69922,3.41797 1.07438,0.53719 2.25263,0.84928 3.41797,1.14062 3.39751,0.84938 6.81028,1.65283 10.25586,2.2793 0.74746,0.1359 1.51959,0 2.27929,0 l 14.81446,0 c 2.2581,0 4.562,0.32616 6.83789,0.45313 l 0,-0.45313 0,-18.17773 c -0.38206,0.01 -0.76331,-7.9e-4 -1.14063,-0.0547 -1.97142,-0.28163 -3.9369,-1.39912 -5.69726,-2.2793 -0.75971,-0.37985 -1.45528,-0.93461 -2.2793,-1.14062 -0.73702,-0.18425 -1.53435,0.149 -2.2793,0 -1.17788,-0.23557 -2.27841,-0.75881 -3.41797,-1.13868 -0.75971,-0.37984 -1.45527,-0.93462 -2.27929,-1.14062 -0.73702,-0.18426 -1.53434,0.14899 -2.2793,0 -1.17787,-0.23558 -2.34358,-0.60148 -3.41797,-1.13867 -0.48048,-0.24024 -0.61073,-1.05233 -1.14062,-1.14063 -1.87342,-0.31224 -3.80962,0.20973 -5.69727,0 -1.55659,-0.17296 -3.00451,-0.94441 -4.55859,-1.13867 -1.50768,-0.18846 -3.05092,0.18846 -4.5586,0 -1.55408,-0.19426 -2.99885,-0.99883 -4.55859,-1.14062 -2.64805,-0.24074 -5.32434,0.18944 -7.97656,0 -0.94482,-0.0675 -1.88143,-0.21303 -2.81641,-0.37305 z"
       id="path4519"
       inkscape:connector-curvature="0" />
    <path
       style="fill:#000000;fill-opacity:0.22222224;fill-rule:evenodd;stroke:#000000;stroke-width:0.80072349px;stroke-linecap:butt;stroke-linejoin:miter;stroke-opacity:1"
       d="m 881.61025,711.82725 c 1.14099,-0.0287 2.29519,-0.24182 3.41797,-0.0547 0.0393,0.007 4.38072,2.20111 4.55859,2.27734 0.76779,0.32906 1.53731,0.65621 2.30859,0.97852 1.92981,-21.11083 5.45157,-42.17944 2.88672,-63.31641 -0.96573,-6.29283 -3.36261,-12.04627 -6.5625,-17.36914 -1.70154,5.27507 -0.0645,6.66131 -2.05078,13.61328 -0.79473,2.78157 -2.75734,5.16059 -3.41992,7.97657 -0.87436,3.716 -0.9571,7.58332 -1.13867,11.39648 -0.27102,5.69135 0,11.39595 0,17.09375 l 0,27.4043 z"
       id="path4517"
       inkscape:connector-curvature="0" />
    <path
       style="fill:#000000;fill-opacity:0.22222224;fill-rule:evenodd;stroke:#000000;stroke-width:0.80072349px;stroke-linecap:butt;stroke-linejoin:miter;stroke-opacity:1"
       d="m 903.30976,754.42502 0,15.5 c 0,1.38009 0.037,2.76162 0.0645,4.14257 0.7279,0.53221 1.46437,1.05438 2.21484,1.55469 6.22908,4.15272 -2.25879,-3.40866 5.65235,3.63281 -0.0184,-9.19178 0.29799,-18.3836 1.10742,-27.57617 -0.99326,0.99774 -2.02737,1.91742 -3.3418,2.29297 -1.84639,0.52754 -3.76186,0.5611 -5.69726,0.45313 z"
       id="path4515"
       inkscape:connector-curvature="0" />
    <path
       style="fill:#000000;fill-opacity:0.22222224;fill-rule:evenodd;stroke:#000000;stroke-width:0.80072349px;stroke-linecap:butt;stroke-linejoin:miter;stroke-opacity:1"
       d="m 910.85563,784.96431 c -2.33763,-1.70916 -4.58509,-3.5433 -6.90234,-5.28125 -2.1015,-1.57612 -6.2731,-5.1304 -9.11719,-5.69921 -2.23486,-0.44699 -4.56813,0.22677 -6.83594,0 -1.5584,-0.15585 -3.00815,-0.91719 -4.55859,-1.13868 -1.1281,-0.16116 -2.28037,0 -3.41992,0 l -3.26758,0 c 2.98037,4.18383 6.02165,8.32781 8.96679,12.53516 2.27912,1.89927 5.00751,3.36094 6.83594,5.69726 5.0645,6.47132 8.71359,13.96163 13.67578,20.51172 0.37653,0.49703 0.76976,0.98105 1.16016,1.4668 -0.0216,-0.87052 -0.15353,-1.7472 -0.0215,-2.60547 0.94341,-6.13214 3.02393,-13.03707 3.41993,-19.37305 0.12716,-2.03461 0.10495,-4.07343 0.0645,-6.11328 z"
       id="path4513"
       inkscape:connector-curvature="0" />
    <path
       style="fill:#000000;fill-opacity:0.22222224;fill-rule:evenodd;stroke:#000000;stroke-width:0.80072349px;stroke-linecap:butt;stroke-linejoin:miter;stroke-opacity:1"
       d="m 865.30161,784.06329 c 0.007,0.27186 0.005,0.54266 -0.0215,0.8125 -2.75941,27.5942 0.3576,-7.41938 -2.27929,13.67578 -0.14135,1.13076 0.14134,2.28721 0,3.41797 -0.24024,1.92192 -0.75882,3.798 -1.13867,5.69727 -0.37986,1.89926 -0.41934,3.90087 -1.13868,5.69922 -0.8226,2.05647 -2.66299,3.61571 -3.41992,5.69726 -0.78962,2.17145 -0.34905,4.66645 -1.13867,6.83789 -0.75693,2.08156 -2.50338,3.68089 -3.41992,5.69727 -1.92769,4.24092 -3.02867,10.53612 -4.55664,14.81445 -8.42924,23.60187 2.04221,-8.09662 -7.97852,15.95313 -0.74495,1.78788 -0.75881,3.79994 -1.13867,5.69921 -1.28067,2.56135 -2.61119,5.09821 -3.89062,7.66016 1.70564,2.74173 3.23871,5.6071 5.02929,8.29297 2.57198,3.85797 5.31955,7.596 7.97852,11.39453 2.65897,3.79853 5.22607,7.66368 7.97656,11.39648 1.43056,1.94147 2.93394,3.82721 4.43555,5.71485 2.41957,-2.76555 4.83929,-5.5143 7.27539,-8.20899 8.76266,-11.1334 15.28507,-24.81849 14.98047,-39.2539 -0.83502,-22.0805 -3.10984,-44.19428 -4.66797,-66.32422 -4.06792,-5.0774 -8.812,-9.60389 -12.88672,-14.67383 z"
       id="path4511"
       inkscape:connector-curvature="0" />
    <path
       style="fill:#000000;fill-opacity:0.22222224;fill-rule:evenodd;stroke:#000000;stroke-width:0.80072349px;stroke-linecap:butt;stroke-linejoin:miter;stroke-opacity:1"
       d="m 811.74991,857.28716 c -0.91129,-1.46484 -1.86989,-2.89546 -2.94727,-4.24219 -3.02024,-3.7753 -7.10945,-6.58505 -10.25586,-10.25586 -3.70808,-4.32609 -6.12987,-9.74626 -10.25586,-13.67578 -3.96706,-3.77815 -9.59116,-5.46232 -13.67383,-9.11523 -3.22764,-2.88789 -4.91604,-7.19338 -7.97851,-10.25586 -3.39787,-3.39787 -7.40411,-6.11993 -11.15625,-9.12891 -8.8e-4,0.002 -0.001,0.004 -0.002,0.006 0.31144,0.37372 0.61483,0.75247 0.90235,1.14453 2.42976,3.31331 4.40813,6.9445 6.83789,10.25781 1.75443,2.3924 4.08557,4.34514 5.69726,6.83594 25.03115,38.68451 -7.3456,-7.32135 12.53516,20.51172 1.89927,2.65897 4.01805,5.17656 5.69922,7.97852 0.61802,1.03002 0.72817,2.28909 1.13867,3.41797 1.10912,3.05007 1.96655,6.21434 3.41797,9.11718 0.48048,0.96096 1.85608,1.29178 2.2793,2.2793 0.76298,1.78027 0.60852,3.83492 1.14062,5.69727 2.53807,8.88324 -0.24069,-9.66335 2.2793,7.97656 0.22528,1.57698 0.0458,6.80735 0,6.83789 -1.99892,1.33261 -4.68911,1.20491 -6.83789,2.2793 -1.69875,0.84938 -2.79517,2.71259 -4.5586,3.41796 -2.14529,0.85812 -4.56691,0.71287 -6.83789,1.13868 -6.11003,1.14563 -17.94348,3.74229 -23.92968,4.55859 -9.41762,1.28422 -18.90112,1.33357 -28.38477,1.24414 1.29976,0.87348 2.75399,1.93391 4.45313,3.31445 10.24321,8.32261 7.29323,10.57962 20.51171,18.23243 5.5726,3.22624 14.26813,2.27929 20.51368,2.27929 l 11.39453,0 c 1.13956,0 2.30249,0.22348 3.41992,0 0.83289,-0.16658 1.42796,-1.13867 2.27734,-1.13867 0.5372,0 0.66015,1.37891 1.14063,1.13867 0.75971,-0.37986 0.53807,-1.67869 1.13867,-2.27929 0.2686,-0.2686 0.87203,0.2686 1.14062,0 0.2686,-0.2686 -0.21069,-0.82262 0,-1.13868 0.59596,-0.89394 1.68334,-1.38535 2.2793,-2.27929 0.21071,-0.31606 0,-0.75882 0,-1.13867 0,-1.13956 -0.42322,-2.36187 0,-3.41993 0.39902,-0.99754 1.98414,-1.24624 2.2793,-2.27929 0.52177,-1.82619 0,-3.798 0,-5.69727 0.37985,-1.51941 0.6434,-3.07278 1.13867,-4.55859 0.2686,-0.80579 0.90729,-1.46261 1.14063,-2.2793 1.0642,-3.72472 1.16422,-7.68414 2.27734,-11.39453 1.17558,-3.91861 3.16047,-7.55166 4.55859,-11.39649 0.821,-2.25776 1.51959,-4.55877 2.2793,-6.83789 0.37985,-1.13956 0.63725,-2.32732 1.14063,-3.41797 0.57964,-1.2559 1.18865,-2.4969 1.80664,-3.73437 z"
       id="path4509"
       inkscape:connector-curvature="0" />
    <path
       style="fill:#000000;fill-opacity:0.22222224;fill-rule:evenodd;stroke:#000000;stroke-width:0.80072349px;stroke-linecap:butt;stroke-linejoin:miter;stroke-opacity:1"
       d="m 712.48487,882.91502 c -5.80251,-3.89946 -8.42112,-4.00363 -14.91797,-11.5 -2.34697,-2.70803 -3.71144,-6.13355 -5.69922,-9.11523 -3.96198,-5.94296 -3.89017,-3.73751 -6.83593,-11.39649 -0.99271,-2.58104 -1.28659,-5.39551 -2.2793,-7.97656 -0.91473,-2.37829 -2.61413,-4.42052 -3.41992,-6.83789 -1.51424,-4.54273 -1.13868,-9.00684 -1.13867,-13.67383 l 0,-9.11719 c -0.99946,-0.66631 -2.71342,-0.16722 -3.41993,-1.13867 -2.4979,-3.43462 -3.26183,-7.91729 -5.69726,-11.39648 -2.93062,-4.18661 -8.24278,-6.69929 -10.25586,-11.39649 -1.64595,-3.84054 0,-8.35677 0,-12.53515 l 0,-8.15235 c -0.37923,0.0606 -0.75746,0.12659 -1.13867,0.17578 -2.36798,0.30555 -4.75023,0.4706 -7.13477,0.59961 -1.66107,31.32903 -5.49521,62.54558 -11.38281,93.30664 2.28575,1.87693 4.58256,3.73629 7.12109,5.23633 3.52218,2.08128 7.70573,2.79345 11.39649,4.5586 5.05959,2.4198 9.53752,6.07686 14.81445,7.97656 8.41247,3.02849 18.67753,2.27929 27.34766,2.27929 4.20993,0 8.42552,0.0638 12.64062,0.10352 z"
       id="path4507"
       inkscape:connector-curvature="0" />
    <path
       style="fill:#000000;fill-opacity:0.22222224;fill-rule:evenodd;stroke:#000000;stroke-width:0.80072349px;stroke-linecap:butt;stroke-linejoin:miter;stroke-opacity:1"
       d="m 683.66447,798.18128 c 4.98654,-0.79738 9.81473,-2.50149 14.81445,-3.24219 4.89921,-0.7258 9.86688,-0.91573 14.81445,-1.14062 3.41515,-0.15523 6.91051,0.70428 10.25586,0 4.00338,-0.84282 7.49158,-3.33635 11.39649,-4.55664 3.87788,-1.21184 5.48131,-1.30358 6.42578,-1.19727 -2.35627,-3.91157 -4.48813,-8.00309 -7.56641,-11.33789 -2.37538,-2.57334 -5.69744,-4.17892 -7.97656,-6.83789 -2.33212,-2.72082 -3.16333,-6.58324 -5.69727,-9.11719 -1.8018,-1.80179 -4.95953,-1.69612 -6.83789,-3.41796 -2.80011,-2.56676 -4.26142,-6.32601 -6.83789,-9.11719 -5.99954,-6.4995 -6.5409,-4.01549 -11.39453,-10.25586 -1.35982,-1.74834 -1.96139,-4.03038 -3.41992,-5.69727 -1.25067,-1.42934 -3.58143,-1.78936 -4.55859,-3.41796 -2.94704,-4.91173 -2.27735,-10.60227 -2.27735,-15.95508 l 0,-3.41797 c -0.93953,6.38879 0.18984,12.91833 0,19.37305 -1.58568,53.91294 -1.14062,-18.75653 -1.14062,42.1621 l 0,27.17383 z"
       id="path4505"
       inkscape:connector-curvature="0" />
    <path
       style="fill:#000000;fill-opacity:0.22222224;fill-rule:evenodd;stroke:#000000;stroke-width:0.80072349px;stroke-linecap:butt;stroke-linejoin:miter;stroke-opacity:1"
       d="m 667.56564,689.746 c 0.16374,-1.1134 0.39184,-2.21326 0.64649,-3.30664 -0.21554,0.004 -0.43097,0.01 -0.64649,0.0137 l 0,3.29297 z"
       id="path4503"
       inkscape:connector-curvature="0" />
    <path
       style="fill:#000000;fill-opacity:0.22222224;fill-rule:evenodd;stroke:#000000;stroke-width:0.80072349px;stroke-linecap:butt;stroke-linejoin:miter;stroke-opacity:1"
       d="m 665.84216,684.77393 0,-4.68359 -1.14062,0 -7.99805,0 c -0.0147,1.51683 -0.0295,3.03368 -0.0547,4.55078 0.0268,0.002 0.0493,0.004 0.0762,0.006 3.0339,0.19573 6.0752,0.18179 9.11718,0.12695 z"
       id="path4501"
       inkscape:connector-curvature="0" />
    <path
       style="fill:#000000;fill-opacity:0.22222224;fill-rule:evenodd;stroke:#000000;stroke-width:0.80072349px;stroke-linecap:butt;stroke-linejoin:miter;stroke-opacity:1"
       d="m 654.3884,684.99657 c -0.64526,-0.042 -1.21476,-0.1003 -1.83203,-0.14844 1.45509,16.2267 2.27027,32.5155 2.49024,48.81836 0.18531,-0.26737 0.36902,-0.53812 0.55664,-0.80078 0.22078,-0.3091 0,-0.76077 0,-1.14063 l 0,-3.41797 0,-12.53515 c 0,-23.60341 0.29452,10.4295 -1.13867,-18.23438 -0.20881,-4.17615 -0.14555,-8.35791 -0.0762,-12.54101 z"
       id="path4499"
       inkscape:connector-curvature="0" />
    <path
       style="fill:#000000;fill-opacity:0.22222224;fill-rule:evenodd;stroke:#000000;stroke-width:0.80072349px;stroke-linecap:butt;stroke-linejoin:miter;stroke-opacity:1"
       d="m 654.66966,677.31441 c 0.007,-0.75986 0.0215,-1.51963 0.0215,-2.2793 l 0,-18.36914 c -1.16504,-0.13137 -2.82292,-0.28107 -4.71485,-0.44141 0.92048,7.0144 1.71894,14.04628 2.40039,21.08985 l 2.29297,0 z"
       id="path4497"
       inkscape:connector-curvature="0" />
    <path
       style="fill:#000000;fill-opacity:0.22222224;fill-rule:evenodd;stroke:#000000;stroke-width:0.80072349px;stroke-linecap:butt;stroke-linejoin:miter;stroke-opacity:1"
       d="m 655.41067,652.0116 c 0.40648,0.0458 0.86175,0.0932 1.13867,0.13476 2.66294,0.39945 5.27135,1.09722 7.89062,1.73243 -0.0556,-1.3425 -0.089,-2.68271 0.0879,-4.00977 1.14359,-8.57696 3.41797,-10.86413 3.41797,-19.37305 0,-2.31056 -1.54216,-4.56249 -1.14062,-6.83789 0.77266,-4.37841 3.21053,-8.29838 4.55859,-12.53515 0.0672,-0.21131 6.81049,-25.00522 6.83789,-25.07032 1.39062,-3.3027 4.24186,-5.84251 5.69727,-9.11718 1.61066,-3.62398 1.90995,-7.72746 3.41992,-11.39453 0.5054,-1.22742 1.07393,-2.34568 1.67187,-3.41797 l -0.5332,0 c -7.2725,0 -15.90461,-1.19109 -21.65234,4.55664 -0.84938,0.84938 -0.28931,2.57054 -1.13868,3.41992 -3.15913,3.15913 -3.71256,-1.21301 -5.69726,3.41797 -0.76298,1.78027 -0.46055,3.8837 -1.14063,5.69726 -0.48089,1.28237 -1.94712,2.09124 -2.27929,3.41993 -1.47514,5.90056 -1.13867,13.33098 -1.13867,19.37109 l 0,29.62891 0,20.37695 z"
       id="path4495"
       inkscape:connector-curvature="0" />
    <path
       style="fill:#000000;fill-opacity:0.22222224;fill-rule:evenodd;stroke:#000000;stroke-width:0.80072349px;stroke-linecap:butt;stroke-linejoin:miter;stroke-opacity:1"
       d="m 668.47663,661.93135 c 0.0391,0.94291 0.0879,1.88585 0.0879,2.82617 l 0,7.97656 0,7.97852 1.93946,0 c 1.20147,-3.80941 2.64578,-7.56617 3.75781,-11.39649 0.56247,-1.93741 1.08917,-3.88549 1.61523,-5.83398 -1.67093,-0.36599 -3.36225,-0.64542 -5.03515,-1.00391 -0.79138,-0.16958 -1.57798,-0.35595 -2.36524,-0.54687 z"
       id="path4493"
       inkscape:connector-curvature="0" />
    <path
       style="fill:#000000;fill-opacity:0.22222224;fill-rule:evenodd;stroke:#000000;stroke-width:0.80072349px;stroke-linecap:butt;stroke-linejoin:miter;stroke-opacity:1"
       d="m 706.78668,679.88559 c 0.22072,0.0483 0.44422,0.0844 0.66407,0.13672 6.09434,1.45104 12.07836,3.38639 18.23242,4.55859 1.86572,0.35538 3.79799,0 5.69726,0 3.03882,0 6.08429,-0.18956 9.11719,0 3.05652,0.19103 6.06,0.95884 9.11719,1.13867 5.30877,0.31228 10.63517,0 15.95312,0 l 12.53516,0 c 4.43245,0 6.76336,0.25068 11.39453,-1.13867 4.94058,-1.48217 4.78935,-2.51384 6.26953,-5.17188 -2.31795,-2.14409 -4.81769,-3.63409 -7.4082,-6.22461 -9.75257,-9.75256 -3.31211,-6.13803 -13.67383,-13.67382 -1.79127,-1.30275 -3.58226,-2.76855 -5.69922,-3.41992 -2.92705,-0.90063 -6.13118,-0.45005 -9.11523,-1.13868 -1.99319,-0.45997 -3.73992,-1.6915 -5.69922,-2.27929 -5.78507,-1.73552 -8.29927,-1.14063 -14.81445,-1.14063 l -13.67383,0 c -1.89927,0 -4.06866,-0.97716 -5.69727,0 -5.38257,3.22954 -8.64222,13.39346 -10.25586,18.23438 -1.11101,3.33303 -2.02721,6.72583 -2.94336,10.11914 z"
       id="path4491"
       inkscape:connector-curvature="0" />
    <path
       style="fill:#000000;fill-opacity:0.22222224;fill-rule:evenodd;stroke:#000000;stroke-width:0.80072349px;stroke-linecap:butt;stroke-linejoin:miter;stroke-opacity:1"
       d="m 837.4722,708.50272 c 0.58049,0.53696 1.15322,1.10356 1.70899,1.75196 2.41388,2.8162 3.75995,4.56436 4.77734,6.03515 0.6764,-0.50559 1.31761,-1.08137 2.05859,-1.47656 l 2.2793,-1.14062 0,-13.67383 c 0,-0.85972 -0.0272,-1.71953 -0.0488,-2.58008 -5.12618,9.18935 -0.47222,-1.24878 -7.92773,7.13867 -1.47201,1.65601 -2.27266,2.91275 -2.84766,3.94531 z"
       id="path4489"
       inkscape:connector-curvature="0" />
    <path
       style="fill:#000000;fill-opacity:0.22222224;fill-rule:evenodd;stroke:#000000;stroke-width:0.80072349px;stroke-linecap:butt;stroke-linejoin:miter;stroke-opacity:1"
       d="m 797.52129,652.54555 c 0.63392,-1.13639 1.35138,-2.44386 2.32813,-4.25781 1.13898,-2.11525 1.35529,-4.61834 2.27929,-6.83594 0.98005,-2.35212 2.27841,-4.55877 3.41797,-6.83789 1.51942,-3.03882 2.8106,-6.20384 4.5586,-9.11719 0.55277,-0.92127 1.88027,-1.28176 2.27929,-2.2793 1.16333,-2.90832 1.20884,-6.17147 2.2793,-9.11523 0.46804,-1.28712 1.79841,-2.13754 2.2793,-3.41992 0.68008,-1.81356 0.60657,-3.83491 1.13867,-5.69727 0.17167,-0.60084 0.61631,-1.10056 0.90625,-1.65429 -0.29278,-2.10515 -0.7551,-4.20611 -0.90625,-6.32227 -0.18945,-2.65221 0,-5.31759 0,-7.97656 l 0,-0.86914 c -1.39475,-2.11833 -2.41353,-2.11198 -5.61914,-4.76758 -2.30853,6.30255 -4.74678,13.82461 -5.77539,19.31055 -0.35001,1.86674 0.42092,3.84717 0,5.69922 -1.83859,8.08982 -5.35383,15.76738 -6.83789,23.92968 -0.48048,2.64265 -0.75881,5.3176 -1.13867,7.97657 -0.37985,2.65896 -0.93462,5.2985 -1.14063,7.97656 -0.10886,1.41522 -0.0845,2.83703 -0.0488,4.25781 z"
       id="path4487"
       inkscape:connector-curvature="0" />
    <path
       style="fill:#000000;fill-opacity:0.22222224;fill-rule:evenodd;stroke:#000000;stroke-width:0.80072349px;stroke-linecap:butt;stroke-linejoin:miter;stroke-opacity:1"
       d="m 855.8965,731.67625 c -0.42673,0.31897 -0.86331,0.61671 -1.35937,0.80274 -4.83762,1.8141 -9.88771,3.00278 -14.81446,4.55859 -2.29089,0.72344 -4.57244,1.47973 -6.83789,2.2793 -2.60863,0.92069 -5.16666,1.99333 -7.75781,2.96484 1.0662,0.15692 2.13283,0.31958 3.20117,0.45313 3.79854,0.37985 7.58182,0.94998 11.39453,1.14062 3.79379,0.18969 7.60761,-0.27064 11.39649,0 1.56219,0.11158 2.99587,1.0086 4.55664,1.13867 1.46036,0.1217 2.92902,0.0776 4.39648,0.0234 0.0293,-1.14473 0.16211,-2.2999 0.16211,-3.4414 l 0,-2.96094 c -2.02338,-3.16586 -2.83952,-4.79286 -4.33789,-6.95899 z"
       id="path4485"
       inkscape:connector-curvature="0" />
    <path
       style="fill:#000000;fill-opacity:0.22222224;fill-rule:evenodd;stroke:#000000;stroke-width:0.80072349px;stroke-linecap:butt;stroke-linejoin:miter;stroke-opacity:1"
       d="m 866.38744,748.95969 c -0.0195,0.75989 -0.002,1.51615 0.16211,2.25586 0.68162,3.06727 5.06313,8.4811 6.83789,10.25586 0.32755,0.32755 0.77671,0.48069 1.22656,0.63672 0.44248,-2.34034 0.78559,-4.69567 1.07227,-7.06055 -0.81065,-0.86258 -1.59744,-1.74442 -2.29883,-2.69336 -0.9786,-1.32398 -1.70198,-2.34558 -2.47461,-3.42578 -1.5054,-0.0867 -3.01505,-0.0245 -4.52539,0.0312 z"
       id="path4483"
       inkscape:connector-curvature="0" />
    <path
       style="fill:#000000;fill-opacity:0.22222224;fill-rule:evenodd;stroke:#000000;stroke-width:0.80072349px;stroke-linecap:butt;stroke-linejoin:miter;stroke-opacity:1"
       d="m 872.66572,763.6995 c -0.0316,0.16702 -0.0552,0.3351 -0.0879,0.50195 -1.6632,8.50081 -4.38159,16.76331 -6.83593,25.07032 -0.72117,2.44085 -1.66731,5.49726 -2.66016,8.6621 1.33382,-1.99824 -2.56073,2.17424 7.21875,-6.38281 1.37216,-1.20063 2.5084,-3.12537 4.55664,-3.41797 1.4841,-0.21202 12.00732,0 13.67578,0 l 5.84766,0 c -2.40118,-3.37076 -4.76687,-6.76506 -6.98828,-10.25586 -0.96486,-1.51619 -1.79868,-3.10917 -2.60547,-4.71875 -0.66065,-0.31427 -1.38242,-0.5235 -1.95117,-0.97851 -3.15307,-2.52245 -5.96412,-5.45606 -9.11719,-7.97852 -0.30154,-0.24123 -0.67773,-0.37188 -1.05274,-0.50195 z"
       id="path4481"
       inkscape:connector-curvature="0" />
    <path
       style="fill:#000000;fill-opacity:0.22222224;fill-rule:evenodd;stroke:#000000;stroke-width:0.80072349px;stroke-linecap:butt;stroke-linejoin:miter;stroke-opacity:1"
       d="m 830.4945,785.88736 c -0.39719,0.59504 -1.20058,1.66687 -3.03906,3.87305 -2.31251,2.775 -7.1531,6.01638 -9.11524,7.97852 -0.6006,0.6006 -0.54002,1.67869 -1.14062,2.27929 -1.34298,1.34298 -3.03723,2.27841 -4.55664,3.41797 -1.51941,1.13956 -3.02259,2.30087 -4.5586,3.41797 -2.64264,1.92192 -5.09951,4.15005 -7.97656,5.69922 -2.11524,1.13898 -4.75202,1.08542 -6.83789,2.27734 -0.73747,0.42141 -0.41229,1.8423 -1.14062,2.2793 -9.58934,5.7536 -8.75242,4.71736 -10.66602,4.50195 1.47298,2.44525 3.03297,4.82048 4.96875,6.89453 2.59181,2.77694 6.62941,3.96739 9.11719,6.8379 2.56132,2.95537 3.52793,7.00185 5.69726,10.25586 1.36858,2.05286 3.18458,3.76758 4.76758,5.6621 0.01,0.008 0.0195,0.0156 0.0293,0.0234 4.15363,-9.71397 11.65605,-27.94119 12.29687,-29.61719 3.55168,-9.28898 8.52998,-24.2282 12.1543,-35.78125 z"
       id="path4479"
       inkscape:connector-curvature="0" />
    <path
       style="fill:#000000;fill-opacity:0.22222224;fill-rule:evenodd;stroke:#000000;stroke-width:0.80072349px;stroke-linecap:butt;stroke-linejoin:miter;stroke-opacity:1"
       d="m 756.69878,806.45426 c -0.45344,-0.36394 -0.90526,-0.72932 -1.34961,-1.10351 -3.08863,-2.60095 -5.60936,-5.97517 -9.11523,-7.97852 -2.00613,-1.14656 -4.53414,-0.96146 -6.83789,-1.13867 -4.54481,-0.3496 -9.11559,0 -13.67383,0 l -5.69922,0 c -1.51941,0 -3.08454,-0.36852 -4.55859,0 -1.64803,0.41201 -2.92326,1.81261 -4.55665,2.2793 -1.09572,0.31306 -2.53008,-0.71188 -3.41992,0 -1.32651,1.0612 -1.07809,3.35739 -2.27929,4.55859 -0.84938,0.84938 -2.56859,0.2893 -3.41797,1.13867 -1.2012,1.20121 -1.17377,3.26881 -2.2793,4.5586 -1.23603,1.44203 -3.07551,2.23151 -4.55859,3.41797 -0.41948,0.33558 -1.03332,0.61386 -1.13867,1.14062 -0.29799,1.48991 0,3.03919 0,4.55859 l 0,13.67383 c 2.46848,1.64565 4.40743,3.99596 6.83789,5.69727 1.39167,0.97418 3.03723,1.5196 4.55664,2.2793 2.27912,1.13956 4.36583,2.80191 6.83789,3.41992 2.21107,0.55277 4.56813,-0.20634 6.83789,0 1.92893,0.17536 3.77223,0.92478 5.69726,1.13867 5.54966,0.61663 9.38432,-0.6485 13.67578,-5.69727 4.30344,-5.06287 6.80095,-11.41784 10.25586,-17.09375 1.86324,-3.06105 4.09467,-5.91197 5.69727,-9.11718 0.40172,-0.80344 1.35109,-2.97975 2.51562,-5.70313 -0.009,-0.0102 -0.0188,-0.0191 -0.0273,-0.0293 z"
       id="path4477"
       inkscape:connector-curvature="0" />
    <path
       style="fill:#000000;fill-opacity:0.22222224;fill-rule:evenodd;stroke:#000000;stroke-width:0.80072349px;stroke-linecap:butt;stroke-linejoin:miter;stroke-opacity:1"
       d="m 768.5399,704.23022 c -1.96652,-0.28941 -3.93363,-0.56894 -5.91602,-0.68554 -3.41278,-0.20075 -6.83718,0 -10.25586,0 l -9.11718,0 -26.20899,0 -18.57226,0 c -0.48715,1.54456 -0.92705,3.09873 -1.29297,4.66992 2.44373,-0.0481 4.88789,-0.11328 7.33008,-0.11328 l 15.95312,0 14.81445,0 c 5.31794,0 10.65212,0.42408 15.95313,0 4.23336,-0.33867 8.43791,-1.15992 12.53516,-2.27735 1.62054,-0.44196 3.20398,-1.00384 4.77734,-1.59375 z"
       id="path3581"
       inkscape:connector-curvature="0" />
    <path
       style="fill:#1a1a1a;fill-rule:evenodd;stroke:#000000;stroke-width:0.82838303px;stroke-linecap:butt;stroke-linejoin:miter;stroke-opacity:1"
       d="m 636.94365,723.04007 c -1.24547,-64.67518 -12.16385,-128.80934 -37.36914,-186.08398 -37.61447,6.69201 -75.29888,12.33133 -112.9961,17.05078 20.24415,52.81476 29.24196,110.70313 30.36524,169.0332 0.0202,65.50713 -7.73286,130.99343 -30.28906,190.30078 32.8581,3.83716 65.69457,8.39542 98.46289,14.53907 4.89261,-0.18526 11.07305,4.32114 15.05273,1.41796 27.5867,-63.40047 36.79549,-134.82 36.77344,-206.25781 z"
       id="path3547"
       inkscape:connector-curvature="0" />
    <path
       style="fill:#1a1a1a;fill-opacity:1;fill-rule:evenodd;stroke:#000000;stroke-width:0.69536614px;stroke-linecap:butt;stroke-linejoin:miter;stroke-opacity:1"
       d="m 284.12852,559.45663 c -14.61742,1.15307 -29.64114,0.22983 -44.4113,0.82336 -47.25721,0.76121 -95.15018,2.00954 -141.17836,13.1138 -19.18215,6.77531 -35.35272,22.52043 -40.11319,42.69356 -15.93825,46.67692 -13.47338,96.61233 -13.23887,145.26128 1.35338,35.90432 4.40794,73.21587 21.49182,105.45148 12.77231,19.81288 37.30498,27.64834 59.679,30.25857 52.36618,6.389 105.06342,7.21936 157.82178,7.63314 -36.4963,-111.2369 -36.19029,-233.99754 -0.0509,-345.23519 z"
       id="path3445"
       inkscape:connector-curvature="0" />
    <path
       style="fill:#1a1a1a;fill-rule:evenodd;stroke:#000000;stroke-width:0.80072349px;stroke-linecap:butt;stroke-linejoin:miter;stroke-opacity:1"
       d="m 577.57266,937.46962 c -3.7783,0.34633 -8.519,-2.5058 -12.4375,-2.35742 -75.97075,-14.24355 -228.43164,-27.87891 -228.43164,-27.87891 0,0 -55.42487,21.23148 -69.00391,32.48047 71.51364,-1.06121 223.23287,-4.45194 294.60547,1.39648 4.56076,-0.77784 10.3215,3.10065 14.03125,-0.34765 0.4205,-1.09489 0.8245,-2.19536 1.23633,-3.29297 z m -0.0117,-408.92774 c -0.58632,-1.56439 -1.17546,-3.1269 -1.7793,-4.68554 -81.65866,6.00585 -236.84,2.80175 -308.15039,2.27929 11.43307,12.43104 69.2168,32.47852 69.2168,32.47852 0,0 11.56256,-1.27867 17.34375,-1.90625 74.42724,-5.95355 149.0343,-15.01657 223.36914,-28.16602 z"
       id="path3574"
       inkscape:connector-curvature="0"
       sodipodi:nodetypes="ccccccccccccc" />
  </g>
</svg>
