<?xml version="1.0" encoding="UTF-8" standalone="no"?>
<!-- Created with Inkscape (http://www.inkscape.org/) -->

<svg
   xmlns:osb="http://www.openswatchbook.org/uri/2009/osb"
   xmlns:dc="http://purl.org/dc/elements/1.1/"
   xmlns:cc="http://creativecommons.org/ns#"
   xmlns:rdf="http://www.w3.org/1999/02/22-rdf-syntax-ns#"
   xmlns:svg="http://www.w3.org/2000/svg"
   xmlns="http://www.w3.org/2000/svg"
   xmlns:sodipodi="http://sodipodi.sourceforge.net/DTD/sodipodi-0.dtd"
   xmlns:inkscape="http://www.inkscape.org/namespaces/inkscape"
   width="241.5761mm"
   height="133.23792mm"
   viewBox="0 0 855.97829 472.10285"
   id="svg2"
   version="1.1"
   inkscape:version="0.91 r13725"
   sodipodi:docname="CarPolis.svg"
   inkscape:export-filename="/Users/jonathanloov/Dropbox/Teammajim/Node/Traffic/Web/Textures/Cars/CarPolis.png"
   inkscape:export-xdpi="90"
   inkscape:export-ydpi="90">
  <sodipodi:namedview
     id="base"
     pagecolor="#ffffff"
     bordercolor="#666666"
     borderopacity="1.0"
     inkscape:pageopacity="0.0"
     inkscape:pageshadow="2"
     inkscape:zoom="0.62050879"
     inkscape:cx="381.20805"
     inkscape:cy="111.25311"
     inkscape:document-units="px"
     inkscape:current-layer="g4486"
     showgrid="false"
     inkscape:snap-page="true"
     inkscape:object-nodes="true"
     inkscape:snap-nodes="true"
     showguides="true"
     inkscape:guide-bbox="true"
     inkscape:snap-smooth-nodes="true"
     inkscape:snap-center="false"
     inkscape:snap-object-midpoints="false"
     inkscape:window-width="1436"
     inkscape:window-height="856"
     inkscape:window-x="4"
     inkscape:window-y="0"
     inkscape:window-maximized="1"
     fit-margin-top="0"
     fit-margin-left="0"
     fit-margin-right="0"
     fit-margin-bottom="0"
     inkscape:snap-global="true" />
  <defs
     id="defs4">
    <linearGradient
       id="linearGradient4275"
       osb:paint="solid">
      <stop
         style="stop-color:#efef00;stop-opacity:1;"
         offset="0"
         id="stop4277" />
    </linearGradient>
  </defs>
  <metadata
     id="metadata7">
    <rdf:RDF>
      <cc:Work
         rdf:about="">
        <dc:format>image/svg+xml</dc:format>
        <dc:type
           rdf:resource="http://purl.org/dc/dcmitype/StillImage" />
        <dc:title></dc:title>
      </cc:Work>
    </rdf:RDF>
  </metadata>
  <g
     id="layer1"
     inkscape:groupmode="layer"
     inkscape:label="Layer 1"
     transform="translate(-7.9346544,-496.66207)">
    <g
       id="g4486"
       transform="matrix(0,1,-1,0,976.69961,488.72743)">
      <path
         inkscape:connector-curvature="0"
         id="path3365"
         d="m 148.66992,113.19727 c -15.14764,-0.0373 -27.9825,1.54908 -36.04101,6.4707 -27.210522,16.61842 -78.451122,60.82013 -91.642582,95.76562 -1.48455,3.93273 -2.485451,10.50642 -3.113281,19.10157 a 58.674231,11.734846 88.54994 0 1 0.636719,-0.17578 58.674231,6.1011686 88.54994 0 1 7.583984,58.50195 58.674231,6.1011686 88.54994 0 1 -4.615234,58.80859 58.674231,11.734846 88.54994 0 1 -1.65625,-0.5957 c 3.56574,72.78027 9.040197,153.3635 6.992187,186.93555 -1.547586,25.36871 -3.58366,126.88465 -0.417969,216.47265 a 58.671996,5.7264992 84.71994 0 1 10.835938,57.8086 58.671996,5.7264992 84.71994 0 1 -0.300781,58.96875 58.672004,11.014214 84.72489 0 1 -0.753907,-0.0684 c 1.934982,10.42285 4.169787,18.73771 6.751954,24.26757 21.087,45.15904 38.496183,46.53645 63.224612,56.7793 41.32968,17.11931 137.42968,16.11524 137.42968,16.11524 0,0 96.09806,1.00407 137.42774,-16.11524 24.72842,-10.24285 42.13761,-11.62026 63.22461,-56.7793 2.57962,-5.5244 4.81242,-13.82794 6.74609,-24.23632 a 11.014214,58.672004 5.3895121 0 1 -0.0527,0.004 5.7264992,58.671996 5.3944624 0 1 -0.18164,-58.96875 5.7264992,58.671996 5.3944624 0 1 9.98828,-56.77343 c 3.2164,-89.83061 1.16856,-192.01162 -0.38477,-217.47461 -2.04324,-33.49388 3.40221,-113.7806 6.96875,-186.42774 a 11.734846,58.674231 1.45006 0 1 -0.59375,0.0879 6.1011686,58.674231 1.45006 0 1 -4.61328,-58.80859 6.1011686,58.674231 1.45006 0 1 7.17969,-58.375 c -0.62806,-8.57168 -1.63148,-15.12728 -3.11328,-19.05274 -13.19146,-34.94549 -64.43207,-79.1472 -91.64258,-95.76562 -23.44293,-14.31743 -87.30144,-0.41016 -130.95313,-0.41016 -28.64642,0 -65.99586,-5.98941 -94.91406,-6.06054 z"
         style="fill:#666666;fill-opacity:1;fill-rule:evenodd;stroke:#000000;stroke-width:0.80072349px;stroke-linecap:butt;stroke-linejoin:miter;stroke-opacity:1" />
      <path
         sodipodi:type="inkscape:offset"
         inkscape:radius="-7.4493332"
         inkscape:original="M 148.66992 113.19727 C 133.52228 113.15997 120.68742 114.74635 112.62891 119.66797 C 85.418384 136.28639 34.177788 180.4881 20.986328 215.43359 C 19.501778 219.36632 18.500877 225.94001 17.873047 234.53516 A 58.674231 11.734846 88.54994 0 1 18.509766 234.35938 A 58.674231 6.1011686 88.54994 0 1 26.09375 292.86133 A 58.674231 6.1011686 88.54994 0 1 21.478516 351.66992 A 58.674231 11.734846 88.54994 0 1 19.822266 351.07422 C 23.388006 423.85449 28.862463 504.43772 26.814453 538.00977 C 25.266867 563.37848 23.230793 664.89442 26.396484 754.48242 A 58.671996 5.7264992 84.71994 0 1 37.232422 812.29102 A 58.671996 5.7264992 84.71994 0 1 36.931641 871.25977 A 58.672004 11.014214 84.72489 0 1 36.177734 871.19141 C 38.112716 881.61426 40.347521 889.92912 42.929688 895.45898 C 64.016688 940.61802 81.425868 941.99543 106.1543 952.23828 C 147.48398 969.35759 243.58398 968.35352 243.58398 968.35352 C 243.58398 968.35352 339.68204 969.35759 381.01172 952.23828 C 405.74014 941.99543 423.14933 940.61802 444.23633 895.45898 C 446.81595 889.93458 449.04875 881.63104 450.98242 871.22266 A 11.014214 58.672004 5.3895121 0 1 450.92969 871.22656 A 5.7264992 58.671996 5.3944624 0 1 450.74805 812.25781 A 5.7264992 58.671996 5.3944624 0 1 460.73633 755.48438 C 463.95273 665.65377 461.90489 563.47276 460.35156 538.00977 C 458.30832 504.51589 463.75377 424.22917 467.32031 351.58203 A 11.734846 58.674231 1.45006 0 1 466.72656 351.66992 A 6.1011686 58.674231 1.45006 0 1 462.11328 292.86133 A 6.1011686 58.674231 1.45006 0 1 469.29297 234.48633 C 468.66491 225.91465 467.66149 219.35905 466.17969 215.43359 C 452.98823 180.4881 401.74762 136.28639 374.53711 119.66797 C 351.09418 105.35054 287.23567 119.25781 243.58398 119.25781 C 214.93756 119.25781 177.58812 113.2684 148.66992 113.19727 z "
         style="fill:#ffffff;fill-opacity:1;fill-rule:evenodd;stroke:#000000;stroke-width:0.80072349px;stroke-linecap:butt;stroke-linejoin:miter;stroke-opacity:1"
         id="path5760"
         d="m 148.65234,120.64648 c -14.61718,-0.036 -26.47713,1.92001 -32.14062,5.37891 -12.87313,7.86207 -32.293867,22.87662 -49.748048,39.97461 -17.454181,17.09799 -32.971854,36.60235 -38.808594,52.06445 -0.906612,2.40171 -2.046316,8.71701 -2.652344,17.01367 a 7.4500781,7.4500781 0 0 1 -4.570312,6.33594 c -10.8187818,4.49731 10.957115,-4.16985 -0.13086,0.0508 -11.0879737,4.22064 11.209325,-3.87154 -0.136718,0.0508 -11.3460433,3.92233 11.447454,-3.55579 -0.142578,0.0469 -11.5900324,3.60267 11.668506,-3.21935 -0.148438,0.043 -11.8169437,3.26232 11.867564,-2.86136 -0.15625,0.041 -12.0238138,2.90238 12.04959,-2.48917 -0.158203,0.0352 -12.2077927,2.52433 12.202169,-2.09886 -0.164063,0.0312 -12.3662308,2.13011 12.3288,-1.69664 -0.167968,0.0254 a 7.4500781,7.4500781 0 0 1 -0.830078,0.0684 c -1.907429,0.0482 0.21708,0.2308 -1.564454,-0.14258 -1.781533,-0.37337 0.135211,0.22153 -1.333984,-0.42773 -2.938389,-1.29852 0.02793,0.45268 -1.667969,-1.07422 -1.695903,-1.52691 0.311611,0.60538 -0.699218,-0.76172 -1.01083,-1.3671 0.473956,0.91401 -0.214844,-0.32617 -1.3776,-2.48036 1.040947,2.77355 0.144531,0.35937 -0.896416,-2.41417 1.157844,3.98846 0.417969,1.32813 -0.739875,-2.66033 1.175744,5.08177 0.507812,2.05859 -0.667931,-3.02317 1.153098,6.09328 0.53125,2.66992 -0.621847,-3.42335 1.116581,7.0343 0.533203,3.20899 -0.583377,-3.82531 1.0634,7.89985 0.517579,3.68945 -0.545821,-4.2104 1.000608,8.68455 0.49414,4.11719 -0.506468,-4.56736 0.925152,9.38664 0.460938,4.49805 -0.464214,-4.8886 0.842515,9.99473 0.423828,4.82617 -0.418687,-5.16857 0.750745,10.50855 0.380859,5.10547 -0.739771,-10.80618 1.144008,22.27577 0.617188,10.82812 -0.52682,-11.44765 0.695757,22.9561 0.40039,11.28711 -0.295353,-11.66875 0.222909,22.75032 0.169922,11.29102 -0.05299,-11.4593 -0.258564,21.67693 -0.06641,10.84765 0.09608,-5.41464 -0.279732,10.30004 -0.123047,5.11719 0.156685,-5.18285 -0.394055,9.74729 -0.177734,4.8418 0.216321,-4.9055 -0.50915,9.10239 -0.234375,4.51562 0.274774,-4.58677 -0.617296,8.36893 -0.285156,4.13672 0.332139,-4.23221 -0.719213,7.56042 -0.330079,3.71094 0.389135,-3.84948 -0.817038,6.68043 -0.36914,3.23047 0.447898,-3.44996 -0.912624,5.74598 -0.398438,2.69336 0.514186,-3.05263 -1.004833,4.77598 -0.40039,2.08203 0.604442,-2.69395 -1.124968,3.80194 -0.351563,1.3457 0.773406,-2.45624 -1.378327,2.91254 -0.126953,0.36524 0.625687,-1.27366 -0.742273,1.07905 0.199219,-0.3379 0.941492,-1.41694 -0.956824,0.81422 0.662109,-0.79687 1.618933,-1.61109 -1.255502,0.2855 1.617188,-1.1582 1.436345,-0.72186 -0.4512,-0.033 1.310547,-0.49414 1.761746,-0.46113 -0.350801,-0.1728 1.55664,-0.21875 a 7.4500781,7.4500781 0 0 1 0.265625,-0.002 c 6.262797,0.0723 -6.011317,-0.337 0.222656,0.008 6.233974,0.34481 -5.960667,-0.59413 0.21875,0.0176 6.179418,0.61171 -5.885852,-0.84451 0.214844,0.0254 6.100696,0.86991 -5.790965,-1.0835 0.208985,0.0332 5.999949,1.11671 -5.680548,-1.30694 0.199218,0.043 5.879767,1.34991 -5.55163,-1.52095 0.191406,0.0469 0.159432,0.0435 0.04079,0.003 0.1875,0.043 0.137218,0.0497 0.01653,0.0146 0.166016,0.0684 0.139274,0.0501 0.03505,0.007 0.164063,0.0527 0.119125,0.0534 0.01367,0.0128 0.142578,0.0703 0.11133,0.0497 0.02653,0.008 0.130859,0.0547 0.106522,0.057 0.01205,0.0111 0.126953,0.0723 0.102843,0.0548 0.02466,0.009 0.121094,0.0606 0.07869,0.0488 0.0083,0.009 0.0918,0.0605 8.798283,5.44632 -7.985159,-5.64067 0.166016,0.10938 a 7.4500781,7.4500781 0 0 1 3.144531,5.72265 c 3.560655,72.67649 9.129533,152.65339 6.988281,187.75391 -1.498221,24.55949 -3.5629,126.479 -0.408203,215.75586 a 7.4500781,7.4500781 0 0 1 -9.916016,7.29102 c -3.247647,-1.14228 0.02994,0.47123 -1.851562,-1.01172 -1.881503,-1.48295 0.321048,0.56856 -0.798828,-0.76758 -0.146023,-0.17422 -0.110102,-0.10841 -0.212891,-0.22461 -0.08126,0.008 1.035742,2.60567 0.269531,0.625 -0.936547,-2.42099 1.391773,4.28146 0.535157,1.55078 -0.856617,-2.73068 1.458335,5.29562 0.628906,2.18359 -0.829429,-3.11202 1.496382,6.24314 0.677734,2.73047 -0.818647,-3.51266 1.516569,7.12426 0.705078,3.2168 -0.811491,-3.90746 1.523402,7.93661 0.720703,3.6543 -0.802699,-4.28232 1.512521,8.67708 0.722657,4.04882 -0.789865,-4.62825 1.49058,9.33544 0.71875,4.39649 -0.77183,-4.93895 1.45118,9.91087 0.703125,4.70117 -0.748056,-5.20969 1.401937,10.39191 0.683593,4.95508 -1.436687,-10.87366 2.556057,21.98768 1.273438,10.48828 -1.282619,-11.4994 2.197986,22.64587 1.113281,10.91992 -1.073583,-11.61286 1.766055,22.68471 0.933594,11.26563 -0.832461,-11.41908 1.237699,21.64095 0.677734,10.83593 -0.279982,-5.4025 0.44375,10.29375 0.236328,5.11915 -0.207422,-5.17461 0.296733,9.7506 0.164063,4.84961 -0.132671,-4.901 0.146068,9.11307 0.08984,4.52734 -0.05622,-4.58574 -0.004,8.38855 0.01758,4.1543 0.0216,-4.23426 -0.157538,7.5884 -0.05664,3.73437 0.100897,-3.85403 -0.309745,6.71598 -0.126953,3.25977 0.182792,-3.45621 -0.458636,5.788 -0.1875,2.72851 0.271136,-3.05949 -0.614578,4.82341 -0.236328,2.12305 0.378249,-2.70036 -0.790562,3.86025 -0.242188,1.39648 0.548374,-2.46377 -1.08834,2.99368 -0.105468,0.41211 0.491436,-1.29078 -0.625076,1.13071 0.15625,-0.33593 0.781325,-1.46665 -0.865655,0.90171 0.576172,-0.85157 1.441826,-1.75328 -1.261686,0.40751 1.542968,-1.34765 1.402327,-0.87758 -0.462291,-0.008 1.335938,-0.64258 1.798228,-0.6348 -0.354623,-0.17636 1.65039,-0.36328 a 7.4500781,7.4500781 0 0 1 0.03906,-0.002 c 13.078706,-1.15066 -12.85643,0.54464 0.240234,-0.0156 13.096664,-0.56026 -12.813775,-0.0327 0.240235,-0.006 13.054009,0.0268 -12.714537,-0.59694 0.238281,0.006 12.952817,0.6028 -12.564339,-1.14471 0.232422,0.0156 12.79676,1.16034 -12.366253,-1.66778 0.224609,0.0254 12.590862,1.69318 -12.122427,-2.16101 0.21875,0.0352 12.341177,2.19617 -11.847408,-2.62443 0.207031,0.041 12.054439,2.66545 -11.54044,-3.0516 0.197266,0.0469 a 7.4500781,7.4500781 0 0 1 5.423828,5.84375 c 1.876874,10.10985 4.109609,18.0456 6.177735,22.47461 10.223273,21.89374 19.007919,32.21391 27.853515,38.59375 8.845596,6.37984 18.646495,9.14231 31.472657,14.45508 18.73133,7.75877 52.95781,12.05664 81.84375,13.92578 28.88594,1.86914 52.65625,1.62305 52.65625,1.62305 a 7.4500781,7.4500781 0 0 1 0.15625,0 c 0,0 23.77079,0.24609 52.65625,-1.62305 28.88545,-1.86914 63.11043,-6.167 81.8418,-13.92578 12.82615,-5.31277 22.62706,-8.07524 31.47265,-14.45508 8.8456,-6.37984 17.63025,-16.70001 27.85352,-38.59375 2.06609,-4.42465 4.29635,-12.34989 6.17187,-22.44531 a 7.4500781,7.4500781 0 0 1 6.6836,-6.06055 c 51.7535,-4.46572 -51.88253,3.83623 0.0645,-0.006 51.94698,-3.84208 -52.05961,3.20736 0.0645,-0.004 a 7.4500781,7.4500781 0 0 1 1.1836,0.0215 c 2.00423,0.19609 -0.1452,-0.27287 1.64843,0.36914 1.79364,0.64202 -0.0664,-0.23327 1.33008,0.64844 2.79304,1.76341 0.0994,-0.40724 1.53321,1.34765 1.43377,1.7549 -0.20619,-0.61754 0.57031,0.84961 0.77649,1.46716 -0.33178,-0.95734 0.15625,0.33399 0.97605,2.58265 -0.64846,-2.87931 -0.10547,-0.41406 0.54299,2.46524 -0.61092,-4.10031 -0.23828,-1.39844 0.37263,2.70186 -0.4973,-5.18587 -0.23242,-2.125 0.26487,3.06086 -0.35936,-6.18591 -0.1836,-2.72852 0.17577,3.45739 -0.21223,-7.1167 -0.11914,-3.26172 0.0931,3.85499 -0.0619,-7.9674 -0.0488,-3.73242 0.0131,4.23498 0.0909,-8.74052 0.0254,-4.15429 -0.0655,4.58622 0.24215,-9.4286 0.0996,-4.52735 -0.14253,4.90126 0.39165,-10.02231 0.17383,-4.84765 -0.21782,5.17465 0.53692,-10.51955 0.2461,-5.11719 -0.58166,10.8047 1.55456,-22.25206 0.69921,-10.83399 -0.85534,11.41808 2.0519,-22.87304 0.95508,-11.26172 -1.14414,12.09942 2.34313,-21.7445 1.01367,-9.83789 -1.32945,11.90661 2.62626,-20.89988 1.14844,-9.52148 -0.73891,5.6892 1.38187,-10.04589 0.61328,-4.54883 -0.76858,5.49707 1.42602,-9.62661 0.63282,-4.35937 -0.79321,5.26723 1.45932,-9.14076 0.64648,-4.13868 -0.81284,5.00209 1.48394,-8.58352 0.65625,-3.8789 -0.82769,4.70462 1.49649,-7.97043 0.6582,-3.5918 -0.83828,4.37863 1.49988,-7.29668 0.6543,-3.26758 -0.84558,4.02911 1.49208,-6.57499 0.64062,-2.91211 -0.85145,3.66289 1.48077,-5.81368 0.6211,-2.52343 -0.85967,3.29024 1.46244,-5.01803 0.58398,-2.08985 -0.87845,2.92818 1.44755,-4.21399 0.51953,-1.60547 -0.92801,2.60853 1.46899,-3.42614 0.40235,-1.02734 -1.06664,2.3988 1.63637,-2.73603 0.13476,-0.2832 a 7.4500781,7.4500781 0 0 1 -13.79882,-4.1543 c 3.20512,-89.51574 1.1288,-192.10467 -0.375,-216.75586 -2.13628,-35.01897 3.40333,-114.70139 6.96484,-187.24609 a 7.4500781,7.4500781 0 0 1 5.47852,-6.82032 c 11.65443,-3.1812 -11.72022,2.83152 0.13671,-0.0351 11.85694,-2.86668 -11.90235,2.5025 0.14063,-0.0332 12.04298,-2.5357 -12.06384,2.16205 0.14648,-0.0273 12.21033,-2.18939 -12.20839,1.80373 0.14844,-0.0254 12.35683,-1.82912 -12.32626,1.43705 0.1543,-0.0195 12.48055,-1.45658 -12.42353,1.05808 0.15625,-0.0156 12.57977,-1.0737 -12.49682,0.67097 0.15625,-0.0117 12.65307,-0.68269 -12.53917,0.28004 0.16015,-0.006 a 7.4500781,7.4500781 0 0 1 0.3711,0 c 1.90741,0.0518 -0.20379,-0.24107 1.55469,0.22461 1.75847,0.46567 -0.12527,-0.22792 1.30664,0.49609 2.86382,1.44803 -0.006,-0.45408 1.60742,1.15625 1.6132,1.61033 -0.2807,-0.621 0.6582,0.79492 0.9389,1.41592 -0.42725,-0.93726 0.19727,0.33594 1.24902,2.54639 -0.89974,-2.82588 -0.12696,-0.36914 0.77279,2.45674 -0.95576,-4.04257 -0.35156,-1.34766 0.6042,2.69491 -0.9164,-5.13573 -0.40234,-2.08203 0.51405,3.0537 -0.84429,-6.14633 -0.39649,-2.69531 0.44781,3.45102 -0.75819,-7.08094 -0.36914,-3.23047 0.38906,3.85046 -0.6641,-7.94404 -0.33203,-3.71094 0.33207,4.23311 -0.55791,-8.72623 -0.2832,-4.13867 0.27471,4.58756 -0.45064,-9.41987 -0.23438,-4.51367 0.21627,4.90619 -0.33437,-10.02526 -0.17773,-4.8418 0.15663,5.18346 -0.21908,-10.53236 -0.12305,-5.11719 0.19207,10.83036 -0.0134,-22.30391 -0.0664,-10.84375 -0.053,11.46017 0.4653,-22.9586 0.16993,-11.28906 -0.29972,11.83227 0.90573,-22.44395 0.38086,-10.81836 -0.52487,11.62559 1.31118,-21.443 0.57812,-10.41601 -0.36653,5.51349 0.76999,-10.22789 0.35547,-4.9336 -0.41452,5.2943 0.85597,-9.72155 0.39648,-4.68945 -0.45948,5.0321 0.93497,-9.13082 0.4336,-4.40039 -0.50137,4.73043 1.0033,-8.45829 0.46289,-4.06445 -0.54041,4.39383 1.06755,-7.71395 0.49023,-3.68555 -0.57731,4.02839 1.1197,-6.90641 0.50586,-3.26367 -0.61383,3.64273 1.1658,-6.04121 0.51172,-2.79102 -0.65408,3.25019 1.2102,-5.13968 0.50195,-2.26562 -0.70824,2.87406 1.262,-4.21935 0.45704,-1.65821 -0.79313,2.52349 1.25644,-3.04093 0.32226,-0.89453 -0.0546,0.078 -0.0274,0.0199 -0.0937,0.11719 -0.91686,1.34535 0.95333,-0.89572 -0.5039,0.61328 -1.45724,1.509 1.26055,-0.51825 -1.24024,0.97852 a 7.4500781,7.4500781 0 0 1 -11.25586,-5.84766 c -0.60603,-8.27104 -1.74589,-14.5655 -2.65234,-16.9668 C 453.3742,202.60235 437.85653,183.09799 420.40234,166 402.94816,148.90201 383.52742,133.88746 370.6543,126.02539 c -8.23809,-5.03129 -29.47548,-6.16449 -53.5,-4.5 -24.02452,1.66449 -50.95336,5.18164 -73.57032,5.18164 -29.68476,0 -67.02623,-5.99191 -94.93164,-6.06055 z m 326.30469,118.52344 c -0.96039,2.24572 1.44515,-2.06279 0,-0.002 0.002,-0.004 -0.002,0.006 0,0.002 z M 20.457031,758.87109 c -0.10423,0.0589 1.161849,1.81296 0.587891,0.61719 -0.274195,-0.30815 -0.561297,-0.63222 -0.587891,-0.61719 z" />
      <path
         style="fill:none;fill-rule:evenodd;stroke:#000000;stroke-width:0.80072349px;stroke-linecap:butt;stroke-linejoin:miter;stroke-opacity:1"
         d="M 783.58598 413.46941 C 796.89985 400.83067 808.64758 386.18735 820.79816 372.747 C 829.56082 361.6136 836.08323 347.9285 835.77863 333.49309 L 835.77863 333.49309 C 834.02419 287.10031 825.88335 240.5595 831.48566 194.03411 C 833.2553 171.34785 837.55091 148.72138 834.79558 126.01464 C 832.80347 113.03379 824.75162 102.32919 816.02981 93.02384 C 806.40773 81.269059 796.4521 69.35379 785.36006 58.834335 "
         id="path5732"
         transform="matrix(0,-1,1,0,7.93464,968.76496)" />
      <path
         style="fill:#000080;fill-rule:evenodd;stroke:#000000;stroke-width:0.80072349px;stroke-linecap:butt;stroke-linejoin:miter;stroke-opacity:1"
         d="M 713.23633 28.71875 C 698.78555 28.768719 684.22455 30.109307 669.83984 29.478516 C 649.56933 30.035714 629.24522 31.162586 608.96289 32.1875 C 614.85929 48.991057 619.93835 66.043208 624.22852 83.279297 L 785.35938 58.833984 C 773.9412 48.005236 761.31958 38.655318 746.61719 32.482422 C 735.64857 29.421388 724.47582 28.679885 713.23633 28.71875 z M 624.18555 388.83008 C 620.01495 405.62115 615.07507 422.22167 609.30078 438.53125 C 655.58804 439.93645 702.42398 446.31396 748.24805 438.03516 C 761.64039 432.13488 773.09911 423.4238 783.58594 413.46875 L 624.18555 388.83008 z "
         transform="matrix(0,-1,1,0,7.93464,968.76496)"
         id="path5730" />
      <path
         style="fill:none;fill-rule:evenodd;stroke:#000000;stroke-width:0.80072349px;stroke-linecap:butt;stroke-linejoin:miter;stroke-opacity:1"
         d="M 624.2294 83.279325 C 648.80229 182.00273 647.44392 286.78935 624.92364 385.81988 C 624.68012 386.82365 624.43387 387.82677 624.18488 388.82921 "
         id="path5728"
         transform="matrix(0,-1,1,0,7.93464,968.76496)" />
      <path
         inkscape:connector-curvature="0"
         id="path3445"
         d="m 70.729201,843.68054 c 1.153073,5.38374 0.229825,10.91711 0.823361,16.3571 0.761207,17.40527 2.009541,35.04469 13.113799,51.9973 6.775313,7.06496 22.520429,13.02073 42.693559,14.77406 46.67692,5.8702 96.61233,4.96237 145.26128,4.876 35.90432,-0.49847 73.21587,-1.62349 105.45148,-7.91564 19.81288,-4.70416 27.64834,-13.73977 30.25857,-21.98033 6.389,-19.28695 7.21936,-38.69583 7.63314,-58.12723 -111.2369,13.44193 -233.99754,13.32922 -345.235189,0.0188 z"
         style="fill:#1a1a1a;fill-opacity:1;fill-rule:evenodd;stroke:#000000;stroke-width:0.4220072px;stroke-linecap:butt;stroke-linejoin:miter;stroke-opacity:1" />
      <path
         sodipodi:nodetypes="ccccccccccccc"
         inkscape:connector-curvature="0"
         id="path3574"
         d="m 448.74219,399.12695 c 0.34633,3.7783 -2.5058,8.519 -2.35742,12.4375 -14.24355,75.97075 -27.87891,228.43164 -27.87891,228.43164 0,0 21.23148,55.42487 32.48047,69.00391 -1.06121,-71.51364 -4.45194,-223.23287 1.39648,-294.60547 -0.77784,-4.56076 3.10065,-10.3215 -0.34765,-14.03125 -1.09489,-0.4205 -2.19536,-0.8245 -3.29297,-1.23633 z m -408.927737,0.0117 c -1.564395,0.58632 -3.126898,1.17546 -4.685547,1.7793 6.00585,81.65866 2.801757,236.84 2.279297,308.15039 12.43104,-11.43307 32.478516,-69.2168 32.478516,-69.2168 0,0 -1.27867,-11.56256 -1.90625,-17.34375 -5.95355,-74.42724 -15.016566,-149.0343 -28.166016,-223.36914 z"
         style="fill:#1a1a1a;fill-rule:evenodd;stroke:#000000;stroke-width:0.80072349px;stroke-linecap:butt;stroke-linejoin:miter;stroke-opacity:1" />
      <path
         inkscape:connector-curvature="0"
         id="path3547"
         d="m 233.54492,339.73828 c -64.67518,1.24547 -128.80934,12.16385 -186.083982,37.36914 6.692016,37.61447 12.331336,75.29888 17.050781,112.9961 52.814761,-20.24415 110.703131,-29.24196 169.033201,-30.36524 65.50713,-0.0202 130.99343,7.73286 190.30078,30.28906 3.83716,-32.8581 8.39542,-65.69457 14.53907,-98.46289 -0.18526,-4.89261 4.32114,-11.07305 1.41796,-15.05273 -63.40047,-27.5867 -134.82,-36.79549 -206.25781,-36.77344 z"
         style="fill:#1a1a1a;fill-rule:evenodd;stroke:#000000;stroke-width:0.82838303px;stroke-linecap:butt;stroke-linejoin:miter;stroke-opacity:1" />
      <path
         style="fill:#1a1a1a;fill-opacity:1;stroke:none"
         d="m 18.275167,234.35961 a 58.674231,11.734846 88.54994 0 0 -10.2469197,58.95251 58.674231,11.734846 88.54994 0 0 13.2164997,58.35856 58.674231,6.1011686 88.54994 0 0 4.61461,-58.80994 58.674231,6.1011686 88.54994 0 0 -7.58419,-58.50113 z"
         id="path4399"
         inkscape:connector-curvature="0" />
      <path
         inkscape:connector-curvature="0"
         id="path4404"
         d="m 469.69697,234.35961 a 11.734846,58.674231 1.45006 0 1 10.24692,58.95251 11.734846,58.674231 1.45006 0 1 -13.2165,58.35856 6.1011686,58.674231 1.45006 0 1 -4.61461,-58.80994 6.1011686,58.674231 1.45006 0 1 7.58419,-58.50113 z"
         style="fill:#1a1a1a;fill-opacity:1;stroke:none" />
      <path
         inkscape:connector-curvature="0"
         id="path4411"
         d="m 26.130418,754.41417 a 58.672004,11.014214 84.72489 0 0 -5.563728,59.47214 58.672004,11.014214 84.72489 0 0 16.365821,57.37378 58.671996,5.7264992 84.71994 0 0 0.299617,-58.96844 58.671996,5.7264992 84.71994 0 0 -11.10171,-57.87748 z"
         style="fill:#1a1a1a;fill-opacity:1;stroke:none" />
      <path
         style="fill:#1a1a1a;fill-opacity:1;stroke:none"
         d="m 461.96545,754.4023 a 11.014214,58.672004 5.3895121 0 1 5.44497,59.48314 11.014214,58.672004 5.3895121 0 1 -16.48036,57.34098 5.7264992,58.671996 5.3944624 0 1 -0.18186,-58.96892 5.7264992,58.671996 5.3944624 0 1 11.21725,-57.8552 z"
         id="path4413"
         inkscape:connector-curvature="0" />
      <text
         xml:space="preserve"
         style="font-style:normal;font-weight:normal;font-size:71.14745331px;line-height:125%;font-family:sans-serif;letter-spacing:0px;word-spacing:0px;fill:#0000ff;fill-opacity:1;stroke:none;stroke-width:1px;stroke-linecap:butt;stroke-linejoin:miter;stroke-opacity:1"
         x="-354.00754"
         y="-161.90906"
         id="text5719"
         sodipodi:linespacing="125%"
         transform="scale(-1,-1)"><tspan
           sodipodi:role="line"
           id="tspan5721"
           x="-354.00754"
           y="-161.90906">POLIS</tspan></text>
      <rect
         style="fill:#0000ff;fill-opacity:1;stroke:#000000;stroke-width:5;stroke-linecap:butt;stroke-linejoin:miter;stroke-miterlimit:4;stroke-dasharray:none;stroke-dashoffset:0;stroke-opacity:1"
         id="rect5746"
         width="91.439568"
         height="332.66531"
         x="-653.85156"
         y="77.86364"
         transform="matrix(0,-1,1,0,0,0)"
         ry="28.449856" />
      <rect
         ry="22.509575"
         transform="matrix(0,-1,1,0,0,0)"
         y="112.59361"
         x="-658.60535"
         height="263.20535"
         width="100.94708"
         id="rect5748"
         style="fill:#ffffff;fill-opacity:1;stroke:#000000;stroke-width:5;stroke-linecap:butt;stroke-linejoin:miter;stroke-miterlimit:4;stroke-dasharray:none;stroke-dashoffset:0;stroke-opacity:1" />
      <text
         xml:space="preserve"
         style="font-style:normal;font-weight:normal;font-size:62.38903809px;line-height:125%;font-family:sans-serif;letter-spacing:0px;word-spacing:0px;fill:#000000;fill-opacity:1;stroke:none;stroke-width:1px;stroke-linecap:butt;stroke-linejoin:miter;stroke-opacity:1"
         x="185.40495"
         y="537.80908"
         id="text5750"
         sodipodi:linespacing="125%"><tspan
           sodipodi:role="line"
           id="tspan5752"
           x="185.40495"
           y="537.80908">781</tspan></text>
      <text
         sodipodi:linespacing="125%"
         id="text5754"
         y="746.26135"
         x="148.76732"
         style="font-style:normal;font-weight:normal;font-size:86.13428497px;line-height:125%;font-family:sans-serif;letter-spacing:0px;word-spacing:0px;fill:#000000;fill-opacity:1;stroke:none;stroke-width:1px;stroke-linecap:butt;stroke-linejoin:miter;stroke-opacity:1"
         xml:space="preserve"><tspan
           y="746.26135"
           x="148.76732"
           id="tspan5756"
           sodipodi:role="line">RUB </tspan></text>
      <path
         style="fill:#ff0000;fill-opacity:1;fill-rule:evenodd;stroke:#000000;stroke-width:0.44214422px;stroke-linecap:butt;stroke-linejoin:miter;stroke-opacity:1"
         d="M 125.07422 45.882812 C 119.69176 47.148854 114.1594 46.135424 108.7207 46.787109 C 91.319563 47.622893 73.684918 48.993383 56.736328 61.185547 C 49.673048 68.624651 43.717754 85.912973 41.964844 108.0625 C 38.218159 140.78079 37.240912 174.95679 37.041016 209.29297 C 37.275241 178.80561 38.300648 148.484 41.955078 119.42578 C 43.708408 99.252651 49.665509 83.507735 56.730469 76.732422 C 73.683079 65.628164 91.321293 64.378394 108.72656 63.617188 C 113.56915 63.088832 118.48553 63.754771 123.30469 63.095703 C 123.86893 57.33499 124.4523 51.590841 125.07422 45.882812 z M 37.083984 264.87695 C 37.08584 265.76615 37.088408 266.66625 37.089844 267.55469 C 37.588194 306.97663 38.713246 347.94409 45.003906 383.33789 C 49.706946 405.09188 58.739916 413.69459 66.978516 416.56055 C 86.260886 423.5755 105.66501 424.48709 125.0918 424.94141 C 124.47304 419.31795 123.89532 413.65901 123.33398 407.98438 C 104.49398 407.55403 85.677921 406.5915 66.976562 400.39648 C 58.736003 397.78625 49.700254 389.95155 44.996094 370.13867 C 38.714969 337.95955 37.583787 300.72326 37.083984 264.87695 z "
         transform="matrix(0,-1,1,0,7.93464,968.76496)"
         id="path5762" />
    </g>
  </g>
</svg>
