<?xml version="1.0" encoding="UTF-8" standalone="no"?>
<!-- Created with Inkscape (http://www.inkscape.org/) -->

<svg
   xmlns:dc="http://purl.org/dc/elements/1.1/"
   xmlns:cc="http://creativecommons.org/ns#"
   xmlns:rdf="http://www.w3.org/1999/02/22-rdf-syntax-ns#"
   xmlns:svg="http://www.w3.org/2000/svg"
   xmlns="http://www.w3.org/2000/svg"
   xmlns:sodipodi="http://sodipodi.sourceforge.net/DTD/sodipodi-0.dtd"
   xmlns:inkscape="http://www.inkscape.org/namespaces/inkscape"
   width="441.87512"
   height="441.87512"
   id="svg2"
   version="1.1"
   inkscape:version="0.91 r13725"
   sodipodi:docname="AddRoad.svg"
   inkscape:export-filename="/Users/jonathanloov/Dropbox/Teammajim/Node/Traffic/Web/Textures/Buttons/AddRoad.png"
   inkscape:export-xdpi="90"
   inkscape:export-ydpi="90">
  <defs
     id="defs4">
    <clipPath
       clipPathUnits="userSpaceOnUse"
       id="clipPath3822">
      <path
         sodipodi:nodetypes="cccccccccccscccccccccccc"
         inkscape:connector-curvature="0"
         id="path3824"
         d="m -494.28571,420.93361 -31.42858,-145.71428 c 106.64664,-61.93337 210.43299,-127.95287 340,-157.14286 78.26471,-6.45484 168.513899,2.07094 234.285719,-20.000002 C 158.48519,41.42105 265.69688,-18.611962 388.57143,-59.066389 c 190.66998,-29.984063 362.13615,-14.359078 525.71428,20 L 1277.1429,69.50504 c 55.2199,-1.230471 105.114,3.752483 179.5973,-19.952062 L 1451.4286,103.79075 1500,258.07647 c -46.8923,133.27643 -60.4581,114.20294 -85.7143,148.57143 0,0 -88.5714,40 -97.1428,25.71428 -8.5715,-14.28571 -2.8572,-148.57143 -2.8572,-148.57143 -34.6045,-60.80097 -84.0848,-109.85782 -182.8571,-120 -109.1914,7.67879 -149.99388,65.33416 -171.4286,137.14286 -16.28144,53.33333 -12.98708,106.66667 -5.71429,160 l -220,-11.42857 -57.14285,-22.85714 -582.857146,14.28571 0,-148.57143 C 73.291928,234.51927 45.006985,179.1827 -82.857143,158.07647 -181.85388,169.453 -240.15501,219.51748 -274.59252,292.05538 l 3.16395,160.3068 z"
         style="fill:#f0aa3c;fill-opacity:1;stroke:#100000;stroke-width:2;stroke-miterlimit:4;stroke-dasharray:none;stroke-dashoffset:2;stroke-opacity:1" />
    </clipPath>
    <clipPath
       clipPathUnits="userSpaceOnUse"
       id="clipPath3832">
      <path
         sodipodi:nodetypes="cccccccccccscccccccccccc"
         inkscape:connector-curvature="0"
         id="path3834"
         d="m -494.28571,420.93361 -31.42858,-145.71428 c 106.64664,-61.93337 210.43299,-127.95287 340,-157.14286 78.26471,-6.45484 168.513899,2.07094 234.285719,-20.000002 C 158.48519,41.42105 265.69688,-18.611962 388.57143,-59.066389 c 190.66998,-29.984063 362.13615,-14.359078 525.71428,20 L 1277.1429,69.50504 c 55.2199,-1.230471 105.114,3.752483 179.5973,-19.952062 L 1451.4286,103.79075 1500,258.07647 c -46.8923,133.27643 -60.4581,114.20294 -85.7143,148.57143 0,0 -88.5714,40 -97.1428,25.71428 -8.5715,-14.28571 -2.8572,-148.57143 -2.8572,-148.57143 -34.6045,-60.80097 -84.0848,-109.85782 -182.8571,-120 -109.1914,7.67879 -149.99388,65.33416 -171.4286,137.14286 -16.28144,53.33333 -12.98708,106.66667 -5.71429,160 l -220,-11.42857 -57.14285,-22.85714 -582.857146,14.28571 0,-148.57143 C 73.291928,234.51927 45.006985,179.1827 -82.857143,158.07647 -181.85388,169.453 -240.15501,219.51748 -274.59252,292.05538 l 3.16395,160.3068 z"
         style="fill:#f0aa3c;fill-opacity:1;stroke:#100000;stroke-width:2;stroke-miterlimit:4;stroke-dasharray:none;stroke-dashoffset:2;stroke-opacity:1" />
    </clipPath>
  </defs>
  <sodipodi:namedview
     id="base"
     pagecolor="#ffffff"
     bordercolor="#666666"
     borderopacity="1.0"
     inkscape:pageopacity="0.0"
     inkscape:pageshadow="2"
     inkscape:zoom="1.0465578"
     inkscape:cx="140.40771"
     inkscape:cy="187.64361"
     inkscape:document-units="px"
     inkscape:current-layer="layer1"
     showgrid="false"
     inkscape:snap-global="true"
     fit-margin-top="0"
     fit-margin-left="0"
     fit-margin-right="0"
     fit-margin-bottom="0"
     inkscape:window-width="1436"
     inkscape:window-height="856"
     inkscape:window-x="4"
     inkscape:window-y="0"
     inkscape:window-maximized="1"
     inkscape:object-nodes="true"
     inkscape:snap-smooth-nodes="true"
     inkscape:snap-midpoints="true"
     inkscape:snap-page="true"
     inkscape:snap-intersection-paths="true">
    <inkscape:grid
       type="xygrid"
       id="grid2996"
       empspacing="5"
       visible="true"
       enabled="true"
       snapvisiblegridlinesonly="true"
       originx="84.910112"
       originy="0.27730283" />
  </sodipodi:namedview>
  <metadata
     id="metadata7">
    <rdf:RDF>
      <cc:Work
         rdf:about="">
        <dc:format>image/svg+xml</dc:format>
        <dc:type
           rdf:resource="http://purl.org/dc/dcmitype/StillImage" />
        <dc:title />
      </cc:Work>
    </rdf:RDF>
  </metadata>
  <g
     inkscape:label="Layer 1"
     inkscape:groupmode="layer"
     id="layer1"
     transform="translate(2165.8165,805.59648)">
    <path
       style="opacity:1;fill:#000000;fill-opacity:1;stroke:none;stroke-width:1;stroke-linecap:butt;stroke-linejoin:miter;stroke-miterlimit:4;stroke-dasharray:none;stroke-dashoffset:0;stroke-opacity:1"
       d="m -2075.0611,-805.59648 0,90.75537 -90.7554,0 0,48.95836 90.7554,0 0,90.75537 48.9584,0 0,-90.75537 90.7554,0 0,-48.95836 -90.7554,0 0,-90.75537 -48.9584,0 z"
       id="rect4482"
       inkscape:connector-curvature="0" />
    <path
       style="color:#000000;font-style:normal;font-variant:normal;font-weight:normal;font-stretch:normal;font-size:medium;line-height:normal;font-family:sans-serif;text-indent:0;text-align:start;text-decoration:none;text-decoration-line:none;text-decoration-style:solid;text-decoration-color:#000000;letter-spacing:normal;word-spacing:normal;text-transform:none;direction:ltr;block-progression:tb;writing-mode:lr-tb;baseline-shift:baseline;text-anchor:start;white-space:normal;clip-rule:nonzero;display:inline;overflow:visible;visibility:visible;opacity:1;isolation:auto;mix-blend-mode:normal;color-interpolation:sRGB;color-interpolation-filters:linearRGB;solid-color:#000000;solid-opacity:1;fill:#000000;fill-opacity:1;fill-rule:evenodd;stroke:none;stroke-width:118.60676575;stroke-linecap:butt;stroke-linejoin:miter;stroke-miterlimit:4;stroke-dasharray:none;stroke-dashoffset:0;stroke-opacity:1;color-rendering:auto;image-rendering:auto;shape-rendering:auto;text-rendering:auto;enable-background:accumulate"
       d="M 441.875 227.62891 L 0 311.79297 L 0 432.53125 L 441.875 348.36523 L 441.875 227.62891 z "
       transform="translate(-2165.8165,-805.59648)"
       id="path4777" />
    <path
       style="color:#000000;font-style:normal;font-variant:normal;font-weight:normal;font-stretch:normal;font-size:medium;line-height:normal;font-family:sans-serif;text-indent:0;text-align:start;text-decoration:none;text-decoration-line:none;text-decoration-style:solid;text-decoration-color:#000000;letter-spacing:normal;word-spacing:normal;text-transform:none;direction:ltr;block-progression:tb;writing-mode:lr-tb;baseline-shift:baseline;text-anchor:start;white-space:normal;clip-rule:nonzero;display:inline;overflow:visible;visibility:visible;opacity:1;isolation:auto;mix-blend-mode:normal;color-interpolation:sRGB;color-interpolation-filters:linearRGB;solid-color:#000000;solid-opacity:1;fill:#ffffff;fill-opacity:1;fill-rule:evenodd;stroke:none;stroke-width:30;stroke-linecap:butt;stroke-linejoin:miter;stroke-miterlimit:4;stroke-dasharray:90, 30;stroke-dashoffset:0;stroke-opacity:1;color-rendering:auto;image-rendering:auto;shape-rendering:auto;text-rendering:auto;enable-background:accumulate"
       d="M 441.875 272.72852 L 429.93555 275.00195 L 435.54883 304.4707 L 441.875 303.26562 L 441.875 272.72852 z M 400.46484 280.61523 L 312.05469 297.45508 L 317.66797 326.92383 L 406.07812 310.08398 L 400.46484 280.61523 z M 282.58398 303.06836 L 194.17383 319.9082 L 199.78711 349.37695 L 288.19727 332.53711 L 282.58398 303.06836 z M 164.70312 325.52148 L 76.292969 342.36133 L 81.90625 371.83008 L 170.31641 354.99023 L 164.70312 325.52148 z M 46.822266 347.97461 L 0 356.89258 L 0 387.43164 L 52.435547 377.44336 L 46.822266 347.97461 z "
       transform="translate(-2165.8165,-805.59648)"
       id="path4779" />
  </g>
</svg>
